<svg xmlns="http://www.w3.org/2000/svg" width="1200" height="700" viewBox="0 0 1200 700">
<rect width="100%" height="100%" fill="white"/>
<style>
text { font-family: Arial, Helvetica, sans-serif; fill: #111; }
.label { font-size: 34px; font-weight: 700; }
.small { font-size: 22px; }
.line { stroke:#111; stroke-width:5; fill:none; stroke-linecap:round; stroke-linejoin:round; }
.thin { stroke:#111; stroke-width:3; fill:none; }
.cell { fill:#f7f7f7; stroke:#111; stroke-width:4; }
.nucleus { fill:#ddd; stroke:#111; stroke-width:3; }
</style>

<text x="60" y="60" class="label">Ostéon simplifié</text>
<circle cx="600" cy="365" r="260" class="line"/><circle cx="600" cy="365" r="205" class="line"/><circle cx="600" cy="365" r="150" class="line"/><circle cx="600" cy="365" r="80" fill="#eee" stroke="#111" stroke-width="5"/>
<text x="575" y="375" class="label">1</text>
<ellipse cx="720" cy="365" rx="18" ry="10" class="nucleus"/><ellipse cx="659" cy="469" rx="18" ry="10" class="nucleus"/><ellipse cx="540" cy="468" rx="18" ry="10" class="nucleus"/><ellipse cx="481" cy="364" rx="18" ry="10" class="nucleus"/><ellipse cx="542" cy="261" rx="18" ry="10" class="nucleus"/><ellipse cx="661" cy="262" rx="18" ry="10" class="nucleus"/><ellipse cx="775" cy="365" rx="18" ry="10" class="nucleus"/><ellipse cx="687" cy="516" rx="18" ry="10" class="nucleus"/><ellipse cx="512" cy="516" rx="18" ry="10" class="nucleus"/><ellipse cx="426" cy="364" rx="18" ry="10" class="nucleus"/><ellipse cx="515" cy="213" rx="18" ry="10" class="nucleus"/><ellipse cx="689" cy="215" rx="18" ry="10" class="nucleus"/><ellipse cx="830" cy="365" rx="18" ry="10" class="nucleus"/><ellipse cx="714" cy="564" rx="18" ry="10" class="nucleus"/><ellipse cx="484" cy="563" rx="18" ry="10" class="nucleus"/><ellipse cx="371" cy="364" rx="18" ry="10" class="nucleus"/><ellipse cx="488" cy="165" rx="18" ry="10" class="nucleus"/><ellipse cx="717" cy="168" rx="18" ry="10" class="nucleus"/>
<line x1="850" y1="160" x2="930" y2="105" class="line"/><text x="950" y="110" class="label">2</text>
<line x1="795" y1="330" x2="930" y2="330" class="line"/><text x="950" y="340" class="label">3</text>
<line x1="720" y1="520" x2="930" y2="585" class="line"/><text x="950" y="600" class="label">4</text>

</svg>