<svg xmlns="http://www.w3.org/2000/svg" viewBox="0 0 1100 520" width="1100" height="520" role="img" aria-labelledby="t d"><title id="t">Glycérophospholipide</title><desc id="d">Schéma simplifié avec squelette de glycérol, deux chaînes acyles et tête polaire</desc><rect width="1100" height="520" fill="white"/><g stroke="#111" stroke-width="6" fill="none" stroke-linecap="round"><path d="M110 155 C210 115 300 175 390 140"/><path d="M110 355 C210 315 300 375 390 340"/><line x1="390" y1="140" x2="470" y2="215"/><line x1="390" y1="340" x2="470" y2="275"/><line x1="525" y1="245" x2="650" y2="245"/><line x1="675" y1="245" x2="710" y2="260"/><line x1="742" y1="260" x2="820" y2="245"/><line x1="726" y1="235" x2="726" y2="180"/><line x1="738" y1="235" x2="738" y2="180"/><line x1="726" y1="285" x2="726" y2="330"/></g><g font-family="Arial,sans-serif" fill="#111" text-anchor="middle"><text x="495" y="265" font-size="44">Glycérol</text><text x="660" y="260" font-size="42">O</text><text x="732" y="276" font-size="46">P</text><text x="732" y="162" font-size="42">O</text><text x="732" y="365" font-size="42">O⁻</text><text x="845" y="260" font-size="42">O</text><line x1="870" y1="245" x2="915" y2="245" stroke="#111" stroke-width="6"/><text x="980" y="260" font-size="38">Tête</text><text x="225" y="85" font-size="32">chaînes acyles</text></g></svg>
