<svg width="1200" height="520" viewBox="0 0 1200 520" fill="none" xmlns="http://www.w3.org/2000/svg">
  <rect width="1200" height="520" rx="32" fill="#FAFAF9"/>
  <text x="600" y="56" text-anchor="middle" font-family="Arial, sans-serif" font-size="30" font-weight="700" fill="#0F172A">Schéma type bac : trois rayons remarquables</text>
  <text x="600" y="90" text-anchor="middle" font-family="Arial, sans-serif" font-size="18" fill="#334155">Lentille convergente seule, objet au-delà du foyer, image réelle et renversée</text>

  <line x1="80" y1="260" x2="1120" y2="260" stroke="#94A3B8" stroke-width="3" stroke-dasharray="10 10"/>

  <path d="M540 108C510 143 510 377 540 412H580C610 377 610 143 580 108H540Z" fill="#DBEAFE" stroke="#2563EB" stroke-width="6"/>
  <line x1="560" y1="108" x2="560" y2="412" stroke="#1D4ED8" stroke-width="3"/>
  <circle cx="560" cy="260" r="6" fill="#0F172A"/>

  <line x1="180" y1="260" x2="180" y2="140" stroke="#7C3AED" stroke-width="5"/>
  <polygon points="180,140 170,160 190,160" fill="#7C3AED"/>
  <text x="164" y="278" font-family="Arial, sans-serif" font-size="22" font-weight="700" fill="#6D28D9">A</text>
  <text x="162" y="130" font-family="Arial, sans-serif" font-size="22" font-weight="700" fill="#6D28D9">B</text>

  <line x1="760" y1="260" x2="760" y2="322" stroke="#7C3AED" stroke-width="5"/>
  <polygon points="760,322 750,304 770,304" fill="#7C3AED"/>
  <text x="744" y="278" font-family="Arial, sans-serif" font-size="22" font-weight="700" fill="#6D28D9">A'</text>
  <text x="742" y="344" font-family="Arial, sans-serif" font-size="22" font-weight="700" fill="#6D28D9">B'</text>

  <circle cx="430" cy="260" r="6" fill="#F59E0B"/>
  <circle cx="690" cy="260" r="6" fill="#F59E0B"/>
  <text x="430" y="236" text-anchor="middle" font-family="Arial, sans-serif" font-size="22" font-weight="700" fill="#B45309">F</text>
  <text x="690" y="236" text-anchor="middle" font-family="Arial, sans-serif" font-size="22" font-weight="700" fill="#B45309">F'</text>
  <text x="560" y="236" text-anchor="middle" font-family="Arial, sans-serif" font-size="22" font-weight="700" fill="#0F172A">O</text>

  <line x1="180" y1="140" x2="560" y2="140" stroke="#DC2626" stroke-width="5"/>
  <line x1="560" y1="140" x2="760" y2="322" stroke="#DC2626" stroke-width="5"/>
  <polygon points="760,322 743,314 747,331" fill="#DC2626"/>

  <line x1="180" y1="140" x2="560" y2="260" stroke="#0EA5E9" stroke-width="5"/>
  <line x1="560" y1="260" x2="760" y2="322" stroke="#0EA5E9" stroke-width="5"/>
  <polygon points="760,322 743,314 747,331" fill="#0EA5E9"/>

  <line x1="180" y1="140" x2="560" y2="322" stroke="#16A34A" stroke-width="5"/>
  <line x1="560" y1="322" x2="760" y2="322" stroke="#16A34A" stroke-width="5"/>
  <polygon points="760,322 742,314 746,331" fill="#16A34A"/>

  <text x="186" y="124" font-family="Arial, sans-serif" font-size="18" fill="#334155">Objet AB</text>
  <text x="770" y="360" font-family="Arial, sans-serif" font-size="18" fill="#334155">Image A'B'</text>
  <text x="596" y="454" text-anchor="middle" font-family="Arial, sans-serif" font-size="24" font-weight="700" fill="#1D4ED8">Lentille convergente</text>

  <text x="122" y="174" font-family="Arial, sans-serif" font-size="18" fill="#334155">1. Rayon parallèle à l'axe</text>
  <text x="824" y="170" font-family="Arial, sans-serif" font-size="18" fill="#334155">passe par F'</text>

  <text x="160" y="398" font-family="Arial, sans-serif" font-size="18" fill="#334155">2. Rayon passant par O</text>
  <text x="160" y="426" font-family="Arial, sans-serif" font-size="18" fill="#334155">n'est pas dévié</text>

  <text x="742" y="398" font-family="Arial, sans-serif" font-size="18" fill="#334155">3. Rayon passant par F</text>
  <text x="742" y="426" font-family="Arial, sans-serif" font-size="18" fill="#334155">ressort parallèle à l'axe</text>
</svg>