<?xml version="1.0" encoding="utf-8" standalone="no"?>
<!DOCTYPE svg PUBLIC "-//W3C//DTD SVG 1.1//EN"
  "http://www.w3.org/Graphics/SVG/1.1/DTD/svg11.dtd">
<svg xmlns:xlink="http://www.w3.org/1999/xlink" width="823.251064pt" height="331.2pt" viewBox="0 0 823.251064 331.2" xmlns="http://www.w3.org/2000/svg" version="1.1">
 <metadata>
  <rdf:RDF xmlns:dc="http://purl.org/dc/elements/1.1/" xmlns:cc="http://creativecommons.org/ns#" xmlns:rdf="http://www.w3.org/1999/02/22-rdf-syntax-ns#">
   <cc:Work>
    <dc:type rdf:resource="http://purl.org/dc/dcmitype/StillImage"/>
    <dc:date>2026-07-20T20:38:10.615363</dc:date>
    <dc:format>image/svg+xml</dc:format>
    <dc:creator>
     <cc:Agent>
      <dc:title>Matplotlib v3.10.8, https://matplotlib.org/</dc:title>
     </cc:Agent>
    </dc:creator>
   </cc:Work>
  </rdf:RDF>
 </metadata>
 <defs>
  <style type="text/css">*{stroke-linejoin: round; stroke-linecap: butt}</style>
 </defs>
 <g id="figure_1">
  <g id="patch_1">
   <path d="M 0 331.2 
L 823.251064 331.2 
L 823.251064 0 
L 0 0 
z
" style="fill: #ffffff"/>
  </g>
  <g id="axes_1">
   <g id="patch_2">
    <path d="M 681.242553 158.859574 
L 670.457872 226.26383 
L 692.027234 226.26383 
z
" clip-path="url(#pc043ba2acc)" style="fill: #1f77b4; opacity: 0.25"/>
   </g>
   <g id="line2d_1">
    <path d="M 142.008511 158.859574 
L 64.493617 158.859574 
" clip-path="url(#pc043ba2acc)" style="fill: none; stroke: #1f77b4; stroke-width: 2; stroke-linecap: square"/>
   </g>
   <g id="line2d_2">
    <path d="M 142.008511 158.859574 
L 219.523404 158.859574 
" clip-path="url(#pc043ba2acc)" style="fill: none; stroke: #ff7f0e; stroke-width: 2; stroke-linecap: square"/>
   </g>
   <g id="line2d_3">
    <path d="M 411.625532 158.859574 
L 411.625532 83.366809 
" clip-path="url(#pc043ba2acc)" style="fill: none; stroke: #2ca02c; stroke-width: 2; stroke-linecap: square"/>
   </g>
   <g id="line2d_4">
    <path d="M 411.625532 158.859574 
L 346.246879 196.605957 
" clip-path="url(#pc043ba2acc)" style="fill: none; stroke: #d62728; stroke-width: 2; stroke-linecap: square"/>
   </g>
   <g id="line2d_5">
    <path d="M 411.625532 158.859574 
L 477.004185 196.605957 
" clip-path="url(#pc043ba2acc)" style="fill: none; stroke: #9467bd; stroke-width: 2; stroke-linecap: square"/>
   </g>
   <g id="line2d_6">
    <path d="M 681.242553 158.859574 
L 610.468085 121.787234 
" clip-path="url(#pc043ba2acc)" style="fill: none; stroke: #8c564b; stroke-width: 2; stroke-linecap: square"/>
   </g>
   <g id="line2d_7">
    <path d="M 681.242553 158.859574 
L 752.017021 121.787234 
" clip-path="url(#pc043ba2acc)" style="fill: none; stroke: #e377c2; stroke-width: 2; stroke-linecap: square"/>
   </g>
   <g id="line2d_8">
    <path d="M 681.242553 158.859574 
L 670.457872 226.26383 
" clip-path="url(#pc043ba2acc)" style="fill: none; stroke: #7f7f7f; stroke-width: 1.4; stroke-linecap: square"/>
   </g>
   <g id="line2d_9">
    <path d="M 681.242553 158.859574 
L 692.027234 226.26383 
" clip-path="url(#pc043ba2acc)" style="fill: none; stroke: #bcbd22; stroke-width: 1.4; stroke-linecap: square"/>
   </g>
   <g id="line2d_10">
    <path d="M 681.242553 158.859574 
L 681.242553 88.085106 
" clip-path="url(#pc043ba2acc)" style="fill: none; stroke-dasharray: 5.55,2.4; stroke-dashoffset: 0; stroke: #17becf; stroke-width: 1.5"/>
   </g>
   <g id="text_1">
    <!-- Schéma A -->
    <g transform="translate(103.214292 41.39504) scale(0.14 -0.14)">
     <defs>
      <path id="DejaVuSans-Bold-53" d="M 3834 4519 
L 3834 3531 
Q 3450 3703 3084 3790 
Q 2719 3878 2394 3878 
Q 1963 3878 1756 3759 
Q 1550 3641 1550 3391 
Q 1550 3203 1689 3098 
Q 1828 2994 2194 2919 
L 2706 2816 
Q 3484 2659 3812 2340 
Q 4141 2022 4141 1434 
Q 4141 663 3683 286 
Q 3225 -91 2284 -91 
Q 1841 -91 1394 -6 
Q 947 78 500 244 
L 500 1259 
Q 947 1022 1364 901 
Q 1781 781 2169 781 
Q 2563 781 2772 912 
Q 2981 1044 2981 1288 
Q 2981 1506 2839 1625 
Q 2697 1744 2272 1838 
L 1806 1941 
Q 1106 2091 782 2419 
Q 459 2747 459 3303 
Q 459 4000 909 4375 
Q 1359 4750 2203 4750 
Q 2588 4750 2994 4692 
Q 3400 4634 3834 4519 
z
" transform="scale(0.015625)"/>
      <path id="DejaVuSans-Bold-63" d="M 3366 3391 
L 3366 2478 
Q 3138 2634 2908 2709 
Q 2678 2784 2431 2784 
Q 1963 2784 1702 2511 
Q 1441 2238 1441 1747 
Q 1441 1256 1702 982 
Q 1963 709 2431 709 
Q 2694 709 2930 787 
Q 3166 866 3366 1019 
L 3366 103 
Q 3103 6 2833 -42 
Q 2563 -91 2291 -91 
Q 1344 -91 809 395 
Q 275 881 275 1747 
Q 275 2613 809 3098 
Q 1344 3584 2291 3584 
Q 2566 3584 2833 3536 
Q 3100 3488 3366 3391 
z
" transform="scale(0.015625)"/>
      <path id="DejaVuSans-Bold-68" d="M 4056 2131 
L 4056 0 
L 2931 0 
L 2931 347 
L 2931 1625 
Q 2931 2084 2911 2256 
Q 2891 2428 2841 2509 
Q 2775 2619 2662 2680 
Q 2550 2741 2406 2741 
Q 2056 2741 1856 2470 
Q 1656 2200 1656 1722 
L 1656 0 
L 538 0 
L 538 4863 
L 1656 4863 
L 1656 2988 
Q 1909 3294 2193 3439 
Q 2478 3584 2822 3584 
Q 3428 3584 3742 3212 
Q 4056 2841 4056 2131 
z
" transform="scale(0.015625)"/>
      <path id="DejaVuSans-Bold-e9" d="M 4031 1759 
L 4031 1441 
L 1416 1441 
Q 1456 1047 1700 850 
Q 1944 653 2381 653 
Q 2734 653 3104 758 
Q 3475 863 3866 1075 
L 3866 213 
Q 3469 63 3072 -14 
Q 2675 -91 2278 -91 
Q 1328 -91 801 392 
Q 275 875 275 1747 
Q 275 2603 792 3093 
Q 1309 3584 2216 3584 
Q 3041 3584 3536 3087 
Q 4031 2591 4031 1759 
z
M 2881 2131 
Q 2881 2450 2695 2645 
Q 2509 2841 2209 2841 
Q 1884 2841 1681 2658 
Q 1478 2475 1428 2131 
L 2881 2131 
z
M 2702 5119 
L 3586 5119 
L 2433 3944 
L 1821 3944 
L 2702 5119 
z
" transform="scale(0.015625)"/>
      <path id="DejaVuSans-Bold-6d" d="M 3781 2919 
Q 3994 3244 4286 3414 
Q 4578 3584 4928 3584 
Q 5531 3584 5847 3212 
Q 6163 2841 6163 2131 
L 6163 0 
L 5038 0 
L 5038 1825 
Q 5041 1866 5042 1909 
Q 5044 1953 5044 2034 
Q 5044 2406 4934 2573 
Q 4825 2741 4581 2741 
Q 4263 2741 4089 2478 
Q 3916 2216 3909 1719 
L 3909 0 
L 2784 0 
L 2784 1825 
Q 2784 2406 2684 2573 
Q 2584 2741 2328 2741 
Q 2006 2741 1831 2477 
Q 1656 2213 1656 1722 
L 1656 0 
L 531 0 
L 531 3500 
L 1656 3500 
L 1656 2988 
Q 1863 3284 2130 3434 
Q 2397 3584 2719 3584 
Q 3081 3584 3359 3409 
Q 3638 3234 3781 2919 
z
" transform="scale(0.015625)"/>
      <path id="DejaVuSans-Bold-61" d="M 2106 1575 
Q 1756 1575 1579 1456 
Q 1403 1338 1403 1106 
Q 1403 894 1545 773 
Q 1688 653 1941 653 
Q 2256 653 2472 879 
Q 2688 1106 2688 1447 
L 2688 1575 
L 2106 1575 
z
M 3816 1997 
L 3816 0 
L 2688 0 
L 2688 519 
Q 2463 200 2181 54 
Q 1900 -91 1497 -91 
Q 953 -91 614 226 
Q 275 544 275 1050 
Q 275 1666 698 1953 
Q 1122 2241 2028 2241 
L 2688 2241 
L 2688 2328 
Q 2688 2594 2478 2717 
Q 2269 2841 1825 2841 
Q 1466 2841 1156 2769 
Q 847 2697 581 2553 
L 581 3406 
Q 941 3494 1303 3539 
Q 1666 3584 2028 3584 
Q 2975 3584 3395 3211 
Q 3816 2838 3816 1997 
z
" transform="scale(0.015625)"/>
      <path id="DejaVuSans-Bold-20" transform="scale(0.015625)"/>
      <path id="DejaVuSans-Bold-41" d="M 3419 850 
L 1538 850 
L 1241 0 
L 31 0 
L 1759 4666 
L 3194 4666 
L 4922 0 
L 3713 0 
L 3419 850 
z
M 1838 1716 
L 3116 1716 
L 2478 3572 
L 1838 1716 
z
" transform="scale(0.015625)"/>
     </defs>
     <use xlink:href="#DejaVuSans-Bold-53"/>
     <use xlink:href="#DejaVuSans-Bold-63" transform="translate(72.021484 0)"/>
     <use xlink:href="#DejaVuSans-Bold-68" transform="translate(131.298828 0)"/>
     <use xlink:href="#DejaVuSans-Bold-e9" transform="translate(202.490234 0)"/>
     <use xlink:href="#DejaVuSans-Bold-6d" transform="translate(270.3125 0)"/>
     <use xlink:href="#DejaVuSans-Bold-61" transform="translate(374.511719 0)"/>
     <use xlink:href="#DejaVuSans-Bold-20" transform="translate(441.992188 0)"/>
     <use xlink:href="#DejaVuSans-Bold-41" transform="translate(476.806641 0)"/>
    </g>
   </g>
   <g id="text_2">
    <!-- AX₂ — linéaire -->
    <g transform="translate(99.379448 296.979335) scale(0.12 -0.12)">
     <defs>
      <path id="DejaVuSans-41" d="M 2188 4044 
L 1331 1722 
L 3047 1722 
L 2188 4044 
z
M 1831 4666 
L 2547 4666 
L 4325 0 
L 3669 0 
L 3244 1197 
L 1141 1197 
L 716 0 
L 50 0 
L 1831 4666 
z
" transform="scale(0.015625)"/>
      <path id="DejaVuSans-58" d="M 403 4666 
L 1081 4666 
L 2241 2931 
L 3406 4666 
L 4084 4666 
L 2584 2425 
L 4184 0 
L 3506 0 
L 2194 1984 
L 872 0 
L 191 0 
L 1856 2491 
L 403 4666 
z
" transform="scale(0.015625)"/>
      <path id="DejaVuSans-2082" d="M 838 332 
L 2163 332 
L 2163 -24 
L 294 -24 
L 294 319 
Q 400 416 597 591 
Q 1672 1544 1672 1838 
Q 1672 2044 1509 2170 
Q 1347 2297 1081 2297 
Q 919 2297 728 2242 
Q 538 2188 313 2079 
L 313 2463 
Q 553 2551 761 2594 
Q 969 2638 1147 2638 
Q 1600 2638 1872 2432 
Q 2144 2226 2144 1888 
Q 2144 1454 1109 566 
Q 934 416 838 332 
z
" transform="scale(0.015625)"/>
      <path id="DejaVuSans-20" transform="scale(0.015625)"/>
      <path id="DejaVuSans-2014" d="M 313 1978 
L 6088 1978 
L 6088 1528 
L 313 1528 
L 313 1978 
z
" transform="scale(0.015625)"/>
      <path id="DejaVuSans-6c" d="M 603 4863 
L 1178 4863 
L 1178 0 
L 603 0 
L 603 4863 
z
" transform="scale(0.015625)"/>
      <path id="DejaVuSans-69" d="M 603 3500 
L 1178 3500 
L 1178 0 
L 603 0 
L 603 3500 
z
M 603 4863 
L 1178 4863 
L 1178 4134 
L 603 4134 
L 603 4863 
z
" transform="scale(0.015625)"/>
      <path id="DejaVuSans-6e" d="M 3513 2113 
L 3513 0 
L 2938 0 
L 2938 2094 
Q 2938 2591 2744 2837 
Q 2550 3084 2163 3084 
Q 1697 3084 1428 2787 
Q 1159 2491 1159 1978 
L 1159 0 
L 581 0 
L 581 3500 
L 1159 3500 
L 1159 2956 
Q 1366 3272 1645 3428 
Q 1925 3584 2291 3584 
Q 2894 3584 3203 3211 
Q 3513 2838 3513 2113 
z
" transform="scale(0.015625)"/>
      <path id="DejaVuSans-e9" d="M 3597 1894 
L 3597 1613 
L 953 1613 
Q 991 1019 1311 708 
Q 1631 397 2203 397 
Q 2534 397 2845 478 
Q 3156 559 3463 722 
L 3463 178 
Q 3153 47 2828 -22 
Q 2503 -91 2169 -91 
Q 1331 -91 842 396 
Q 353 884 353 1716 
Q 353 2575 817 3079 
Q 1281 3584 2069 3584 
Q 2775 3584 3186 3129 
Q 3597 2675 3597 1894 
z
M 3022 2063 
Q 3016 2534 2758 2815 
Q 2500 3097 2075 3097 
Q 1594 3097 1305 2825 
Q 1016 2553 972 2059 
L 3022 2063 
z
M 2466 5119 
L 3088 5119 
L 2070 3944 
L 1591 3944 
L 2466 5119 
z
" transform="scale(0.015625)"/>
      <path id="DejaVuSans-61" d="M 2194 1759 
Q 1497 1759 1228 1600 
Q 959 1441 959 1056 
Q 959 750 1161 570 
Q 1363 391 1709 391 
Q 2188 391 2477 730 
Q 2766 1069 2766 1631 
L 2766 1759 
L 2194 1759 
z
M 3341 1997 
L 3341 0 
L 2766 0 
L 2766 531 
Q 2569 213 2275 61 
Q 1981 -91 1556 -91 
Q 1019 -91 701 211 
Q 384 513 384 1019 
Q 384 1609 779 1909 
Q 1175 2209 1959 2209 
L 2766 2209 
L 2766 2266 
Q 2766 2663 2505 2880 
Q 2244 3097 1772 3097 
Q 1472 3097 1187 3025 
Q 903 2953 641 2809 
L 641 3341 
Q 956 3463 1253 3523 
Q 1550 3584 1831 3584 
Q 2591 3584 2966 3190 
Q 3341 2797 3341 1997 
z
" transform="scale(0.015625)"/>
      <path id="DejaVuSans-72" d="M 2631 2963 
Q 2534 3019 2420 3045 
Q 2306 3072 2169 3072 
Q 1681 3072 1420 2755 
Q 1159 2438 1159 1844 
L 1159 0 
L 581 0 
L 581 3500 
L 1159 3500 
L 1159 2956 
Q 1341 3275 1631 3429 
Q 1922 3584 2338 3584 
Q 2397 3584 2469 3576 
Q 2541 3569 2628 3553 
L 2631 2963 
z
" transform="scale(0.015625)"/>
      <path id="DejaVuSans-65" d="M 3597 1894 
L 3597 1613 
L 953 1613 
Q 991 1019 1311 708 
Q 1631 397 2203 397 
Q 2534 397 2845 478 
Q 3156 559 3463 722 
L 3463 178 
Q 3153 47 2828 -22 
Q 2503 -91 2169 -91 
Q 1331 -91 842 396 
Q 353 884 353 1716 
Q 353 2575 817 3079 
Q 1281 3584 2069 3584 
Q 2775 3584 3186 3129 
Q 3597 2675 3597 1894 
z
M 3022 2063 
Q 3016 2534 2758 2815 
Q 2500 3097 2075 3097 
Q 1594 3097 1305 2825 
Q 1016 2553 972 2059 
L 3022 2063 
z
" transform="scale(0.015625)"/>
     </defs>
     <use xlink:href="#DejaVuSans-41"/>
     <use xlink:href="#DejaVuSans-58" transform="translate(68.408203 0)"/>
     <use xlink:href="#DejaVuSans-2082" transform="translate(136.914062 0)"/>
     <use xlink:href="#DejaVuSans-20" transform="translate(177.001953 0)"/>
     <use xlink:href="#DejaVuSans-2014" transform="translate(208.789062 0)"/>
     <use xlink:href="#DejaVuSans-20" transform="translate(308.789062 0)"/>
     <use xlink:href="#DejaVuSans-6c" transform="translate(340.576172 0)"/>
     <use xlink:href="#DejaVuSans-69" transform="translate(368.359375 0)"/>
     <use xlink:href="#DejaVuSans-6e" transform="translate(396.142578 0)"/>
     <use xlink:href="#DejaVuSans-e9" transform="translate(459.521484 0)"/>
     <use xlink:href="#DejaVuSans-61" transform="translate(521.044922 0)"/>
     <use xlink:href="#DejaVuSans-69" transform="translate(582.324219 0)"/>
     <use xlink:href="#DejaVuSans-72" transform="translate(610.107422 0)"/>
     <use xlink:href="#DejaVuSans-65" transform="translate(648.970703 0)"/>
    </g>
   </g>
   <g id="text_3">
    <!-- Schéma B -->
    <g transform="translate(372.913344 41.39504) scale(0.14 -0.14)">
     <defs>
      <path id="DejaVuSans-Bold-42" d="M 2456 2859 
Q 2741 2859 2887 2984 
Q 3034 3109 3034 3353 
Q 3034 3594 2887 3720 
Q 2741 3847 2456 3847 
L 1791 3847 
L 1791 2859 
L 2456 2859 
z
M 2497 819 
Q 2859 819 3042 972 
Q 3225 1125 3225 1434 
Q 3225 1738 3044 1889 
Q 2863 2041 2497 2041 
L 1791 2041 
L 1791 819 
L 2497 819 
z
M 3616 2497 
Q 4003 2384 4215 2081 
Q 4428 1778 4428 1338 
Q 4428 663 3972 331 
Q 3516 0 2584 0 
L 588 0 
L 588 4666 
L 2394 4666 
Q 3366 4666 3802 4372 
Q 4238 4078 4238 3431 
Q 4238 3091 4078 2852 
Q 3919 2613 3616 2497 
z
" transform="scale(0.015625)"/>
     </defs>
     <use xlink:href="#DejaVuSans-Bold-53"/>
     <use xlink:href="#DejaVuSans-Bold-63" transform="translate(72.021484 0)"/>
     <use xlink:href="#DejaVuSans-Bold-68" transform="translate(131.298828 0)"/>
     <use xlink:href="#DejaVuSans-Bold-e9" transform="translate(202.490234 0)"/>
     <use xlink:href="#DejaVuSans-Bold-6d" transform="translate(270.3125 0)"/>
     <use xlink:href="#DejaVuSans-Bold-61" transform="translate(374.511719 0)"/>
     <use xlink:href="#DejaVuSans-Bold-20" transform="translate(441.992188 0)"/>
     <use xlink:href="#DejaVuSans-Bold-42" transform="translate(476.806641 0)"/>
    </g>
   </g>
   <g id="text_4">
    <!-- AX₃ — trigonale plane -->
    <g transform="translate(345.833657 296.979335) scale(0.12 -0.12)">
     <defs>
      <path id="DejaVuSans-2083" d="M 1638 1388 
Q 1925 1332 2083 1161 
Q 2241 991 2241 735 
Q 2241 347 1944 138 
Q 1647 -71 1094 -71 
Q 916 -71 720 -38 
Q 525 -6 306 57 
L 306 435 
Q 469 351 655 310 
Q 841 269 1050 269 
Q 1391 269 1578 392 
Q 1766 516 1766 735 
Q 1766 966 1592 1085 
Q 1419 1204 1081 1204 
L 813 1204 
L 813 1541 
L 1106 1541 
Q 1400 1541 1551 1639 
Q 1703 1738 1703 1926 
Q 1703 2107 1547 2202 
Q 1391 2297 1094 2297 
Q 969 2297 809 2269 
Q 650 2241 397 2169 
L 397 2529 
Q 625 2582 825 2610 
Q 1025 2638 1197 2638 
Q 1647 2638 1911 2453 
Q 2175 2269 2175 1960 
Q 2175 1744 2034 1594 
Q 1894 1444 1638 1388 
z
" transform="scale(0.015625)"/>
      <path id="DejaVuSans-74" d="M 1172 4494 
L 1172 3500 
L 2356 3500 
L 2356 3053 
L 1172 3053 
L 1172 1153 
Q 1172 725 1289 603 
Q 1406 481 1766 481 
L 2356 481 
L 2356 0 
L 1766 0 
Q 1100 0 847 248 
Q 594 497 594 1153 
L 594 3053 
L 172 3053 
L 172 3500 
L 594 3500 
L 594 4494 
L 1172 4494 
z
" transform="scale(0.015625)"/>
      <path id="DejaVuSans-67" d="M 2906 1791 
Q 2906 2416 2648 2759 
Q 2391 3103 1925 3103 
Q 1463 3103 1205 2759 
Q 947 2416 947 1791 
Q 947 1169 1205 825 
Q 1463 481 1925 481 
Q 2391 481 2648 825 
Q 2906 1169 2906 1791 
z
M 3481 434 
Q 3481 -459 3084 -895 
Q 2688 -1331 1869 -1331 
Q 1566 -1331 1297 -1286 
Q 1028 -1241 775 -1147 
L 775 -588 
Q 1028 -725 1275 -790 
Q 1522 -856 1778 -856 
Q 2344 -856 2625 -561 
Q 2906 -266 2906 331 
L 2906 616 
Q 2728 306 2450 153 
Q 2172 0 1784 0 
Q 1141 0 747 490 
Q 353 981 353 1791 
Q 353 2603 747 3093 
Q 1141 3584 1784 3584 
Q 2172 3584 2450 3431 
Q 2728 3278 2906 2969 
L 2906 3500 
L 3481 3500 
L 3481 434 
z
" transform="scale(0.015625)"/>
      <path id="DejaVuSans-6f" d="M 1959 3097 
Q 1497 3097 1228 2736 
Q 959 2375 959 1747 
Q 959 1119 1226 758 
Q 1494 397 1959 397 
Q 2419 397 2687 759 
Q 2956 1122 2956 1747 
Q 2956 2369 2687 2733 
Q 2419 3097 1959 3097 
z
M 1959 3584 
Q 2709 3584 3137 3096 
Q 3566 2609 3566 1747 
Q 3566 888 3137 398 
Q 2709 -91 1959 -91 
Q 1206 -91 779 398 
Q 353 888 353 1747 
Q 353 2609 779 3096 
Q 1206 3584 1959 3584 
z
" transform="scale(0.015625)"/>
      <path id="DejaVuSans-70" d="M 1159 525 
L 1159 -1331 
L 581 -1331 
L 581 3500 
L 1159 3500 
L 1159 2969 
Q 1341 3281 1617 3432 
Q 1894 3584 2278 3584 
Q 2916 3584 3314 3078 
Q 3713 2572 3713 1747 
Q 3713 922 3314 415 
Q 2916 -91 2278 -91 
Q 1894 -91 1617 61 
Q 1341 213 1159 525 
z
M 3116 1747 
Q 3116 2381 2855 2742 
Q 2594 3103 2138 3103 
Q 1681 3103 1420 2742 
Q 1159 2381 1159 1747 
Q 1159 1113 1420 752 
Q 1681 391 2138 391 
Q 2594 391 2855 752 
Q 3116 1113 3116 1747 
z
" transform="scale(0.015625)"/>
     </defs>
     <use xlink:href="#DejaVuSans-41"/>
     <use xlink:href="#DejaVuSans-58" transform="translate(68.408203 0)"/>
     <use xlink:href="#DejaVuSans-2083" transform="translate(136.914062 0)"/>
     <use xlink:href="#DejaVuSans-20" transform="translate(177.001953 0)"/>
     <use xlink:href="#DejaVuSans-2014" transform="translate(208.789062 0)"/>
     <use xlink:href="#DejaVuSans-20" transform="translate(308.789062 0)"/>
     <use xlink:href="#DejaVuSans-74" transform="translate(340.576172 0)"/>
     <use xlink:href="#DejaVuSans-72" transform="translate(379.785156 0)"/>
     <use xlink:href="#DejaVuSans-69" transform="translate(420.898438 0)"/>
     <use xlink:href="#DejaVuSans-67" transform="translate(448.681641 0)"/>
     <use xlink:href="#DejaVuSans-6f" transform="translate(512.158203 0)"/>
     <use xlink:href="#DejaVuSans-6e" transform="translate(573.339844 0)"/>
     <use xlink:href="#DejaVuSans-61" transform="translate(636.71875 0)"/>
     <use xlink:href="#DejaVuSans-6c" transform="translate(697.998047 0)"/>
     <use xlink:href="#DejaVuSans-65" transform="translate(725.78125 0)"/>
     <use xlink:href="#DejaVuSans-20" transform="translate(787.304688 0)"/>
     <use xlink:href="#DejaVuSans-70" transform="translate(819.091797 0)"/>
     <use xlink:href="#DejaVuSans-6c" transform="translate(882.568359 0)"/>
     <use xlink:href="#DejaVuSans-61" transform="translate(910.351562 0)"/>
     <use xlink:href="#DejaVuSans-6e" transform="translate(971.630859 0)"/>
     <use xlink:href="#DejaVuSans-65" transform="translate(1035.009766 0)"/>
    </g>
   </g>
   <g id="text_5">
    <!-- Schéma C -->
    <g transform="translate(642.728334 41.39504) scale(0.14 -0.14)">
     <defs>
      <path id="DejaVuSans-Bold-43" d="M 4288 256 
Q 3956 84 3597 -3 
Q 3238 -91 2847 -91 
Q 1681 -91 1000 561 
Q 319 1213 319 2328 
Q 319 3447 1000 4098 
Q 1681 4750 2847 4750 
Q 3238 4750 3597 4662 
Q 3956 4575 4288 4403 
L 4288 3438 
Q 3953 3666 3628 3772 
Q 3303 3878 2944 3878 
Q 2300 3878 1931 3465 
Q 1563 3053 1563 2328 
Q 1563 1606 1931 1193 
Q 2300 781 2944 781 
Q 3303 781 3628 887 
Q 3953 994 4288 1222 
L 4288 256 
z
" transform="scale(0.015625)"/>
     </defs>
     <use xlink:href="#DejaVuSans-Bold-53"/>
     <use xlink:href="#DejaVuSans-Bold-63" transform="translate(72.021484 0)"/>
     <use xlink:href="#DejaVuSans-Bold-68" transform="translate(131.298828 0)"/>
     <use xlink:href="#DejaVuSans-Bold-e9" transform="translate(202.490234 0)"/>
     <use xlink:href="#DejaVuSans-Bold-6d" transform="translate(270.3125 0)"/>
     <use xlink:href="#DejaVuSans-Bold-61" transform="translate(374.511719 0)"/>
     <use xlink:href="#DejaVuSans-Bold-20" transform="translate(441.992188 0)"/>
     <use xlink:href="#DejaVuSans-Bold-43" transform="translate(476.806641 0)"/>
    </g>
   </g>
   <g id="text_6">
    <!-- AX₄ — tétraédrique -->
    <g transform="translate(623.331303 297.219335) scale(0.12 -0.12)">
     <defs>
      <path id="DejaVuSans-2084" d="M 1491 2207 
L 525 897 
L 1491 897 
L 1491 2207 
z
M 1422 2585 
L 1941 2585 
L 1941 897 
L 2363 897 
L 2363 557 
L 1941 557 
L 1941 -24 
L 1491 -24 
L 1491 557 
L 197 557 
L 197 935 
L 1422 2585 
z
" transform="scale(0.015625)"/>
      <path id="DejaVuSans-64" d="M 2906 2969 
L 2906 4863 
L 3481 4863 
L 3481 0 
L 2906 0 
L 2906 525 
Q 2725 213 2448 61 
Q 2172 -91 1784 -91 
Q 1150 -91 751 415 
Q 353 922 353 1747 
Q 353 2572 751 3078 
Q 1150 3584 1784 3584 
Q 2172 3584 2448 3432 
Q 2725 3281 2906 2969 
z
M 947 1747 
Q 947 1113 1208 752 
Q 1469 391 1925 391 
Q 2381 391 2643 752 
Q 2906 1113 2906 1747 
Q 2906 2381 2643 2742 
Q 2381 3103 1925 3103 
Q 1469 3103 1208 2742 
Q 947 2381 947 1747 
z
" transform="scale(0.015625)"/>
      <path id="DejaVuSans-71" d="M 947 1747 
Q 947 1113 1208 752 
Q 1469 391 1925 391 
Q 2381 391 2643 752 
Q 2906 1113 2906 1747 
Q 2906 2381 2643 2742 
Q 2381 3103 1925 3103 
Q 1469 3103 1208 2742 
Q 947 2381 947 1747 
z
M 2906 525 
Q 2725 213 2448 61 
Q 2172 -91 1784 -91 
Q 1150 -91 751 415 
Q 353 922 353 1747 
Q 353 2572 751 3078 
Q 1150 3584 1784 3584 
Q 2172 3584 2448 3432 
Q 2725 3281 2906 2969 
L 2906 3500 
L 3481 3500 
L 3481 -1331 
L 2906 -1331 
L 2906 525 
z
" transform="scale(0.015625)"/>
      <path id="DejaVuSans-75" d="M 544 1381 
L 544 3500 
L 1119 3500 
L 1119 1403 
Q 1119 906 1312 657 
Q 1506 409 1894 409 
Q 2359 409 2629 706 
Q 2900 1003 2900 1516 
L 2900 3500 
L 3475 3500 
L 3475 0 
L 2900 0 
L 2900 538 
Q 2691 219 2414 64 
Q 2138 -91 1772 -91 
Q 1169 -91 856 284 
Q 544 659 544 1381 
z
M 1991 3584 
L 1991 3584 
z
" transform="scale(0.015625)"/>
     </defs>
     <use xlink:href="#DejaVuSans-41"/>
     <use xlink:href="#DejaVuSans-58" transform="translate(68.408203 0)"/>
     <use xlink:href="#DejaVuSans-2084" transform="translate(136.914062 0)"/>
     <use xlink:href="#DejaVuSans-20" transform="translate(177.001953 0)"/>
     <use xlink:href="#DejaVuSans-2014" transform="translate(208.789062 0)"/>
     <use xlink:href="#DejaVuSans-20" transform="translate(308.789062 0)"/>
     <use xlink:href="#DejaVuSans-74" transform="translate(340.576172 0)"/>
     <use xlink:href="#DejaVuSans-e9" transform="translate(379.785156 0)"/>
     <use xlink:href="#DejaVuSans-74" transform="translate(441.308594 0)"/>
     <use xlink:href="#DejaVuSans-72" transform="translate(480.517578 0)"/>
     <use xlink:href="#DejaVuSans-61" transform="translate(521.630859 0)"/>
     <use xlink:href="#DejaVuSans-e9" transform="translate(582.910156 0)"/>
     <use xlink:href="#DejaVuSans-64" transform="translate(644.433594 0)"/>
     <use xlink:href="#DejaVuSans-72" transform="translate(707.910156 0)"/>
     <use xlink:href="#DejaVuSans-69" transform="translate(749.023438 0)"/>
     <use xlink:href="#DejaVuSans-71" transform="translate(776.806641 0)"/>
     <use xlink:href="#DejaVuSans-75" transform="translate(840.283203 0)"/>
     <use xlink:href="#DejaVuSans-65" transform="translate(903.662109 0)"/>
    </g>
   </g>
   <g id="text_7">
    <!-- A -->
    <g transform="translate(136.204214 162.998637) scale(0.15 -0.15)">
     <use xlink:href="#DejaVuSans-Bold-41"/>
    </g>
   </g>
   <g id="text_8">
    <!-- X -->
    <g transform="translate(46.217766 162.722699) scale(0.14 -0.14)">
     <use xlink:href="#DejaVuSans-58"/>
    </g>
   </g>
   <g id="text_9">
    <!-- X -->
    <g transform="translate(228.209255 162.722699) scale(0.14 -0.14)">
     <use xlink:href="#DejaVuSans-58"/>
    </g>
   </g>
   <g id="text_10">
    <!-- 180° -->
    <g transform="translate(128.760386 121.787234) scale(0.11 -0.11)">
     <defs>
      <path id="DejaVuSans-31" d="M 794 531 
L 1825 531 
L 1825 4091 
L 703 3866 
L 703 4441 
L 1819 4666 
L 2450 4666 
L 2450 531 
L 3481 531 
L 3481 0 
L 794 0 
L 794 531 
z
" transform="scale(0.015625)"/>
      <path id="DejaVuSans-38" d="M 2034 2216 
Q 1584 2216 1326 1975 
Q 1069 1734 1069 1313 
Q 1069 891 1326 650 
Q 1584 409 2034 409 
Q 2484 409 2743 651 
Q 3003 894 3003 1313 
Q 3003 1734 2745 1975 
Q 2488 2216 2034 2216 
z
M 1403 2484 
Q 997 2584 770 2862 
Q 544 3141 544 3541 
Q 544 4100 942 4425 
Q 1341 4750 2034 4750 
Q 2731 4750 3128 4425 
Q 3525 4100 3525 3541 
Q 3525 3141 3298 2862 
Q 3072 2584 2669 2484 
Q 3125 2378 3379 2068 
Q 3634 1759 3634 1313 
Q 3634 634 3220 271 
Q 2806 -91 2034 -91 
Q 1263 -91 848 271 
Q 434 634 434 1313 
Q 434 1759 690 2068 
Q 947 2378 1403 2484 
z
M 1172 3481 
Q 1172 3119 1398 2916 
Q 1625 2713 2034 2713 
Q 2441 2713 2670 2916 
Q 2900 3119 2900 3481 
Q 2900 3844 2670 4047 
Q 2441 4250 2034 4250 
Q 1625 4250 1398 4047 
Q 1172 3844 1172 3481 
z
" transform="scale(0.015625)"/>
      <path id="DejaVuSans-30" d="M 2034 4250 
Q 1547 4250 1301 3770 
Q 1056 3291 1056 2328 
Q 1056 1369 1301 889 
Q 1547 409 2034 409 
Q 2525 409 2770 889 
Q 3016 1369 3016 2328 
Q 3016 3291 2770 3770 
Q 2525 4250 2034 4250 
z
M 2034 4750 
Q 2819 4750 3233 4129 
Q 3647 3509 3647 2328 
Q 3647 1150 3233 529 
Q 2819 -91 2034 -91 
Q 1250 -91 836 529 
Q 422 1150 422 2328 
Q 422 3509 836 4129 
Q 1250 4750 2034 4750 
z
" transform="scale(0.015625)"/>
      <path id="DejaVuSans-b0" d="M 1600 4347 
Q 1350 4347 1178 4173 
Q 1006 4000 1006 3750 
Q 1006 3503 1178 3333 
Q 1350 3163 1600 3163 
Q 1850 3163 2022 3333 
Q 2194 3503 2194 3750 
Q 2194 3997 2020 4172 
Q 1847 4347 1600 4347 
z
M 1600 4750 
Q 1800 4750 1984 4673 
Q 2169 4597 2303 4453 
Q 2447 4313 2519 4134 
Q 2591 3956 2591 3750 
Q 2591 3338 2302 3052 
Q 2013 2766 1594 2766 
Q 1172 2766 890 3047 
Q 609 3328 609 3750 
Q 609 4169 896 4459 
Q 1184 4750 1600 4750 
z
" transform="scale(0.015625)"/>
     </defs>
     <use xlink:href="#DejaVuSans-31"/>
     <use xlink:href="#DejaVuSans-38" transform="translate(63.623047 0)"/>
     <use xlink:href="#DejaVuSans-30" transform="translate(127.246094 0)"/>
     <use xlink:href="#DejaVuSans-b0" transform="translate(190.869141 0)"/>
    </g>
   </g>
   <g id="text_11">
    <!-- X -->
    <g transform="translate(406.830532 73.749082) scale(0.14 -0.14)">
     <use xlink:href="#DejaVuSans-58"/>
    </g>
   </g>
   <g id="text_12">
    <!-- X -->
    <g transform="translate(329.777119 207.209508) scale(0.14 -0.14)">
     <use xlink:href="#DejaVuSans-58"/>
    </g>
   </g>
   <g id="text_13">
    <!-- X -->
    <g transform="translate(483.883945 207.209508) scale(0.14 -0.14)">
     <use xlink:href="#DejaVuSans-58"/>
    </g>
   </g>
   <g id="text_14">
    <!-- A -->
    <g transform="translate(405.821235 162.998637) scale(0.15 -0.15)">
     <use xlink:href="#DejaVuSans-Bold-41"/>
    </g>
   </g>
   <g id="text_15">
    <!-- 120° -->
    <g transform="translate(443.538258 127.179574) scale(0.11 -0.11)">
     <defs>
      <path id="DejaVuSans-32" d="M 1228 531 
L 3431 531 
L 3431 0 
L 469 0 
L 469 531 
Q 828 903 1448 1529 
Q 2069 2156 2228 2338 
Q 2531 2678 2651 2914 
Q 2772 3150 2772 3378 
Q 2772 3750 2511 3984 
Q 2250 4219 1831 4219 
Q 1534 4219 1204 4116 
Q 875 4013 500 3803 
L 500 4441 
Q 881 4594 1212 4672 
Q 1544 4750 1819 4750 
Q 2544 4750 2975 4387 
Q 3406 4025 3406 3419 
Q 3406 3131 3298 2873 
Q 3191 2616 2906 2266 
Q 2828 2175 2409 1742 
Q 1991 1309 1228 531 
z
" transform="scale(0.015625)"/>
     </defs>
     <use xlink:href="#DejaVuSans-31"/>
     <use xlink:href="#DejaVuSans-32" transform="translate(63.623047 0)"/>
     <use xlink:href="#DejaVuSans-30" transform="translate(127.246094 0)"/>
     <use xlink:href="#DejaVuSans-b0" transform="translate(190.869141 0)"/>
    </g>
   </g>
   <g id="text_16">
    <!-- A -->
    <g transform="translate(675.438256 162.998637) scale(0.15 -0.15)">
     <use xlink:href="#DejaVuSans-Bold-41"/>
    </g>
   </g>
   <g id="text_17">
    <!-- X -->
    <g transform="translate(594.214362 118.909934) scale(0.14 -0.14)">
     <use xlink:href="#DejaVuSans-58"/>
    </g>
   </g>
   <g id="text_18">
    <!-- X -->
    <g transform="translate(758.680745 118.909934) scale(0.14 -0.14)">
     <use xlink:href="#DejaVuSans-58"/>
    </g>
   </g>
   <g id="text_19">
    <!-- X -->
    <g transform="translate(676.447553 244.955891) scale(0.14 -0.14)">
     <use xlink:href="#DejaVuSans-58"/>
    </g>
   </g>
   <g id="text_20">
    <!-- X -->
    <g transform="translate(676.447553 79.141423) scale(0.14 -0.14)">
     <use xlink:href="#DejaVuSans-58"/>
    </g>
   </g>
   <g id="text_21">
    <!-- ≈ 109,5° -->
    <g transform="translate(707.180648 187.169362) scale(0.1 -0.1)">
     <defs>
      <path id="DejaVuSans-2248" d="M 4684 1947 
L 4684 1388 
Q 4356 1144 4076 1036 
Q 3797 928 3494 928 
Q 3150 928 2694 1113 
Q 2663 1125 2641 1134 
Q 2622 1141 2575 1159 
Q 2091 1350 1797 1350 
Q 1522 1350 1253 1231 
Q 984 1113 678 850 
L 678 1409 
Q 1006 1653 1286 1761 
Q 1566 1869 1869 1869 
Q 2213 1869 2672 1684 
Q 2706 1669 2722 1663 
Q 2741 1656 2788 1638 
Q 3272 1447 3566 1447 
Q 3834 1447 4098 1564 
Q 4363 1681 4684 1947 
z
M 4684 3163 
L 4684 2606 
Q 4356 2359 4076 2251 
Q 3797 2144 3494 2144 
Q 3150 2144 2694 2328 
Q 2663 2341 2641 2350 
Q 2622 2356 2575 2375 
Q 2091 2566 1797 2566 
Q 1522 2566 1253 2447 
Q 984 2328 678 2069 
L 678 2625 
Q 1006 2869 1286 2976 
Q 1566 3084 1869 3084 
Q 2213 3084 2672 2900 
Q 2703 2888 2719 2881 
Q 2741 2872 2788 2853 
Q 3272 2663 3566 2663 
Q 3834 2663 4098 2780 
Q 4363 2897 4684 3163 
z
" transform="scale(0.015625)"/>
      <path id="DejaVuSans-39" d="M 703 97 
L 703 672 
Q 941 559 1184 500 
Q 1428 441 1663 441 
Q 2288 441 2617 861 
Q 2947 1281 2994 2138 
Q 2813 1869 2534 1725 
Q 2256 1581 1919 1581 
Q 1219 1581 811 2004 
Q 403 2428 403 3163 
Q 403 3881 828 4315 
Q 1253 4750 1959 4750 
Q 2769 4750 3195 4129 
Q 3622 3509 3622 2328 
Q 3622 1225 3098 567 
Q 2575 -91 1691 -91 
Q 1453 -91 1209 -44 
Q 966 3 703 97 
z
M 1959 2075 
Q 2384 2075 2632 2365 
Q 2881 2656 2881 3163 
Q 2881 3666 2632 3958 
Q 2384 4250 1959 4250 
Q 1534 4250 1286 3958 
Q 1038 3666 1038 3163 
Q 1038 2656 1286 2365 
Q 1534 2075 1959 2075 
z
" transform="scale(0.015625)"/>
      <path id="DejaVuSans-2c" d="M 750 794 
L 1409 794 
L 1409 256 
L 897 -744 
L 494 -744 
L 750 256 
L 750 794 
z
" transform="scale(0.015625)"/>
      <path id="DejaVuSans-35" d="M 691 4666 
L 3169 4666 
L 3169 4134 
L 1269 4134 
L 1269 2991 
Q 1406 3038 1543 3061 
Q 1681 3084 1819 3084 
Q 2600 3084 3056 2656 
Q 3513 2228 3513 1497 
Q 3513 744 3044 326 
Q 2575 -91 1722 -91 
Q 1428 -91 1123 -41 
Q 819 9 494 109 
L 494 744 
Q 775 591 1075 516 
Q 1375 441 1709 441 
Q 2250 441 2565 725 
Q 2881 1009 2881 1497 
Q 2881 1984 2565 2268 
Q 2250 2553 1709 2553 
Q 1456 2553 1204 2497 
Q 953 2441 691 2322 
L 691 4666 
z
" transform="scale(0.015625)"/>
     </defs>
     <use xlink:href="#DejaVuSans-2248"/>
     <use xlink:href="#DejaVuSans-20" transform="translate(83.789062 0)"/>
     <use xlink:href="#DejaVuSans-31" transform="translate(115.576172 0)"/>
     <use xlink:href="#DejaVuSans-30" transform="translate(179.199219 0)"/>
     <use xlink:href="#DejaVuSans-39" transform="translate(242.822266 0)"/>
     <use xlink:href="#DejaVuSans-2c" transform="translate(306.445312 0)"/>
     <use xlink:href="#DejaVuSans-35" transform="translate(338.232422 0)"/>
     <use xlink:href="#DejaVuSans-b0" transform="translate(401.855469 0)"/>
    </g>
   </g>
  </g>
 </g>
 <defs>
  <clipPath id="pc043ba2acc">
   <rect x="7.2" y="7.2" width="808.851064" height="316.8"/>
  </clipPath>
 </defs>
</svg>
