<?xml version="1.0" encoding="utf-8" standalone="no"?>
<!DOCTYPE svg PUBLIC "-//W3C//DTD SVG 1.1//EN"
  "http://www.w3.org/Graphics/SVG/1.1/DTD/svg11.dtd">
<svg xmlns:xlink="http://www.w3.org/1999/xlink" width="964.246154pt" height="367.2pt" viewBox="0 0 964.246154 367.2" xmlns="http://www.w3.org/2000/svg" version="1.1">
 <metadata>
  <rdf:RDF xmlns:dc="http://purl.org/dc/elements/1.1/" xmlns:cc="http://creativecommons.org/ns#" xmlns:rdf="http://www.w3.org/1999/02/22-rdf-syntax-ns#">
   <cc:Work>
    <dc:type rdf:resource="http://purl.org/dc/dcmitype/StillImage"/>
    <dc:date>2026-07-20T20:38:11.009582</dc:date>
    <dc:format>image/svg+xml</dc:format>
    <dc:creator>
     <cc:Agent>
      <dc:title>Matplotlib v3.10.8, https://matplotlib.org/</dc:title>
     </cc:Agent>
    </dc:creator>
   </cc:Work>
  </rdf:RDF>
 </metadata>
 <defs>
  <style type="text/css">*{stroke-linejoin: round; stroke-linecap: butt}</style>
 </defs>
 <g id="figure_1">
  <g id="patch_1">
   <path d="M 0 367.2 
L 964.246154 367.2 
L 964.246154 0 
L 0 0 
z
" style="fill: #ffffff"/>
  </g>
  <g id="axes_1">
   <g id="line2d_1">
    <path d="M 129.323077 176.815385 
L 70.566584 210.738462 
" clip-path="url(#pb45b4364d9)" style="fill: none; stroke: #1f77b4; stroke-width: 2; stroke-linecap: square"/>
   </g>
   <g id="line2d_2">
    <path d="M 129.323077 176.815385 
L 188.07957 210.738462 
" clip-path="url(#pb45b4364d9)" style="fill: none; stroke: #ff7f0e; stroke-width: 2; stroke-linecap: square"/>
   </g>
   <g id="line2d_3">
    <path d="M 129.323077 176.815385 
L 129.323077 112.361538 
" clip-path="url(#pb45b4364d9)" style="fill: none; stroke-dasharray: 5.55,2.4; stroke-dashoffset: 0; stroke: #2ca02c; stroke-width: 1.5"/>
   </g>
   <g id="line2d_4">
    <path d="M 360 176.815385 
L 312.025525 224.78986 
" clip-path="url(#pb45b4364d9)" style="fill: none; stroke: #d62728; stroke-width: 2; stroke-linecap: square"/>
   </g>
   <g id="line2d_5">
    <path d="M 360 176.815385 
L 407.974475 224.78986 
" clip-path="url(#pb45b4364d9)" style="fill: none; stroke: #9467bd; stroke-width: 2; stroke-linecap: square"/>
   </g>
   <g id="line2d_6">
    <path d="M 617.815385 176.815385 
L 617.815385 112.361538 
" clip-path="url(#pb45b4364d9)" style="fill: none; stroke: #8c564b; stroke-width: 2; stroke-linecap: square"/>
   </g>
   <g id="line2d_7">
    <path d="M 617.815385 176.815385 
L 561.996716 209.042308 
" clip-path="url(#pb45b4364d9)" style="fill: none; stroke: #e377c2; stroke-width: 2; stroke-linecap: square"/>
   </g>
   <g id="line2d_8">
    <path d="M 617.815385 176.815385 
L 673.634053 209.042308 
" clip-path="url(#pb45b4364d9)" style="fill: none; stroke: #7f7f7f; stroke-width: 2; stroke-linecap: square"/>
   </g>
   <g id="line2d_9">
    <path d="M 617.815385 176.815385 
L 573.715385 98.792308 
" clip-path="url(#pb45b4364d9)" style="fill: none; stroke-dasharray: 5.18,2.24; stroke-dashoffset: 0; stroke: #bcbd22; stroke-width: 1.4"/>
   </g>
   <g id="line2d_10">
    <path d="M 617.815385 176.815385 
L 661.915385 254.838462 
" clip-path="url(#pb45b4364d9)" style="fill: none; stroke: #17becf; stroke-width: 2; stroke-linecap: square"/>
   </g>
   <g id="line2d_11">
    <path d="M 841.707692 176.815385 
L 902.769231 176.815385 
" clip-path="url(#pb45b4364d9)" style="fill: none; stroke: #1f77b4; stroke-width: 2; stroke-linecap: square"/>
   </g>
   <g id="line2d_12">
    <path d="M 841.707692 176.815385 
L 841.707692 115.753846 
" clip-path="url(#pb45b4364d9)" style="fill: none; stroke: #ff7f0e; stroke-width: 2; stroke-linecap: square"/>
   </g>
   <g id="line2d_13">
    <path d="M 841.707692 176.815385 
L 780.646154 176.815385 
" clip-path="url(#pb45b4364d9)" style="fill: none; stroke: #2ca02c; stroke-width: 2; stroke-linecap: square"/>
   </g>
   <g id="line2d_14">
    <path d="M 841.707692 176.815385 
L 841.707692 237.876923 
" clip-path="url(#pb45b4364d9)" style="fill: none; stroke: #d62728; stroke-width: 2; stroke-linecap: square"/>
   </g>
   <g id="line2d_15">
    <path d="M 841.707692 176.815385 
L 799.643077 112.361538 
" clip-path="url(#pb45b4364d9)" style="fill: none; stroke-dasharray: 5.18,2.24; stroke-dashoffset: 0; stroke: #9467bd; stroke-width: 1.4"/>
   </g>
   <g id="line2d_16">
    <path d="M 841.707692 176.815385 
L 883.772308 241.269231 
" clip-path="url(#pb45b4364d9)" style="fill: none; stroke: #8c564b; stroke-width: 2; stroke-linecap: square"/>
   </g>
   <g id="text_1">
    <!-- Schéma D -->
    <g transform="translate(92.934249 41.317957) scale(0.13 -0.13)">
     <defs>
      <path id="DejaVuSans-Bold-53" d="M 3834 4519 
L 3834 3531 
Q 3450 3703 3084 3790 
Q 2719 3878 2394 3878 
Q 1963 3878 1756 3759 
Q 1550 3641 1550 3391 
Q 1550 3203 1689 3098 
Q 1828 2994 2194 2919 
L 2706 2816 
Q 3484 2659 3812 2340 
Q 4141 2022 4141 1434 
Q 4141 663 3683 286 
Q 3225 -91 2284 -91 
Q 1841 -91 1394 -6 
Q 947 78 500 244 
L 500 1259 
Q 947 1022 1364 901 
Q 1781 781 2169 781 
Q 2563 781 2772 912 
Q 2981 1044 2981 1288 
Q 2981 1506 2839 1625 
Q 2697 1744 2272 1838 
L 1806 1941 
Q 1106 2091 782 2419 
Q 459 2747 459 3303 
Q 459 4000 909 4375 
Q 1359 4750 2203 4750 
Q 2588 4750 2994 4692 
Q 3400 4634 3834 4519 
z
" transform="scale(0.015625)"/>
      <path id="DejaVuSans-Bold-63" d="M 3366 3391 
L 3366 2478 
Q 3138 2634 2908 2709 
Q 2678 2784 2431 2784 
Q 1963 2784 1702 2511 
Q 1441 2238 1441 1747 
Q 1441 1256 1702 982 
Q 1963 709 2431 709 
Q 2694 709 2930 787 
Q 3166 866 3366 1019 
L 3366 103 
Q 3103 6 2833 -42 
Q 2563 -91 2291 -91 
Q 1344 -91 809 395 
Q 275 881 275 1747 
Q 275 2613 809 3098 
Q 1344 3584 2291 3584 
Q 2566 3584 2833 3536 
Q 3100 3488 3366 3391 
z
" transform="scale(0.015625)"/>
      <path id="DejaVuSans-Bold-68" d="M 4056 2131 
L 4056 0 
L 2931 0 
L 2931 347 
L 2931 1625 
Q 2931 2084 2911 2256 
Q 2891 2428 2841 2509 
Q 2775 2619 2662 2680 
Q 2550 2741 2406 2741 
Q 2056 2741 1856 2470 
Q 1656 2200 1656 1722 
L 1656 0 
L 538 0 
L 538 4863 
L 1656 4863 
L 1656 2988 
Q 1909 3294 2193 3439 
Q 2478 3584 2822 3584 
Q 3428 3584 3742 3212 
Q 4056 2841 4056 2131 
z
" transform="scale(0.015625)"/>
      <path id="DejaVuSans-Bold-e9" d="M 4031 1759 
L 4031 1441 
L 1416 1441 
Q 1456 1047 1700 850 
Q 1944 653 2381 653 
Q 2734 653 3104 758 
Q 3475 863 3866 1075 
L 3866 213 
Q 3469 63 3072 -14 
Q 2675 -91 2278 -91 
Q 1328 -91 801 392 
Q 275 875 275 1747 
Q 275 2603 792 3093 
Q 1309 3584 2216 3584 
Q 3041 3584 3536 3087 
Q 4031 2591 4031 1759 
z
M 2881 2131 
Q 2881 2450 2695 2645 
Q 2509 2841 2209 2841 
Q 1884 2841 1681 2658 
Q 1478 2475 1428 2131 
L 2881 2131 
z
M 2702 5119 
L 3586 5119 
L 2433 3944 
L 1821 3944 
L 2702 5119 
z
" transform="scale(0.015625)"/>
      <path id="DejaVuSans-Bold-6d" d="M 3781 2919 
Q 3994 3244 4286 3414 
Q 4578 3584 4928 3584 
Q 5531 3584 5847 3212 
Q 6163 2841 6163 2131 
L 6163 0 
L 5038 0 
L 5038 1825 
Q 5041 1866 5042 1909 
Q 5044 1953 5044 2034 
Q 5044 2406 4934 2573 
Q 4825 2741 4581 2741 
Q 4263 2741 4089 2478 
Q 3916 2216 3909 1719 
L 3909 0 
L 2784 0 
L 2784 1825 
Q 2784 2406 2684 2573 
Q 2584 2741 2328 2741 
Q 2006 2741 1831 2477 
Q 1656 2213 1656 1722 
L 1656 0 
L 531 0 
L 531 3500 
L 1656 3500 
L 1656 2988 
Q 1863 3284 2130 3434 
Q 2397 3584 2719 3584 
Q 3081 3584 3359 3409 
Q 3638 3234 3781 2919 
z
" transform="scale(0.015625)"/>
      <path id="DejaVuSans-Bold-61" d="M 2106 1575 
Q 1756 1575 1579 1456 
Q 1403 1338 1403 1106 
Q 1403 894 1545 773 
Q 1688 653 1941 653 
Q 2256 653 2472 879 
Q 2688 1106 2688 1447 
L 2688 1575 
L 2106 1575 
z
M 3816 1997 
L 3816 0 
L 2688 0 
L 2688 519 
Q 2463 200 2181 54 
Q 1900 -91 1497 -91 
Q 953 -91 614 226 
Q 275 544 275 1050 
Q 275 1666 698 1953 
Q 1122 2241 2028 2241 
L 2688 2241 
L 2688 2328 
Q 2688 2594 2478 2717 
Q 2269 2841 1825 2841 
Q 1466 2841 1156 2769 
Q 847 2697 581 2553 
L 581 3406 
Q 941 3494 1303 3539 
Q 1666 3584 2028 3584 
Q 2975 3584 3395 3211 
Q 3816 2838 3816 1997 
z
" transform="scale(0.015625)"/>
      <path id="DejaVuSans-Bold-20" transform="scale(0.015625)"/>
      <path id="DejaVuSans-Bold-44" d="M 1791 3756 
L 1791 909 
L 2222 909 
Q 2959 909 3348 1275 
Q 3738 1641 3738 2338 
Q 3738 3031 3350 3393 
Q 2963 3756 2222 3756 
L 1791 3756 
z
M 588 4666 
L 1856 4666 
Q 2919 4666 3439 4514 
Q 3959 4363 4331 4000 
Q 4659 3684 4818 3271 
Q 4978 2859 4978 2338 
Q 4978 1809 4818 1395 
Q 4659 981 4331 666 
Q 3956 303 3431 151 
Q 2906 0 1856 0 
L 588 0 
L 588 4666 
z
" transform="scale(0.015625)"/>
     </defs>
     <use xlink:href="#DejaVuSans-Bold-53"/>
     <use xlink:href="#DejaVuSans-Bold-63" transform="translate(72.021484 0)"/>
     <use xlink:href="#DejaVuSans-Bold-68" transform="translate(131.298828 0)"/>
     <use xlink:href="#DejaVuSans-Bold-e9" transform="translate(202.490234 0)"/>
     <use xlink:href="#DejaVuSans-Bold-6d" transform="translate(270.3125 0)"/>
     <use xlink:href="#DejaVuSans-Bold-61" transform="translate(374.511719 0)"/>
     <use xlink:href="#DejaVuSans-Bold-20" transform="translate(441.992188 0)"/>
     <use xlink:href="#DejaVuSans-Bold-44" transform="translate(476.806641 0)"/>
    </g>
   </g>
   <g id="text_2">
    <!-- AX₃E₁ — pyramidale -->
    <g transform="translate(76.394053 339.15119) scale(0.105 -0.105)">
     <defs>
      <path id="DejaVuSans-41" d="M 2188 4044 
L 1331 1722 
L 3047 1722 
L 2188 4044 
z
M 1831 4666 
L 2547 4666 
L 4325 0 
L 3669 0 
L 3244 1197 
L 1141 1197 
L 716 0 
L 50 0 
L 1831 4666 
z
" transform="scale(0.015625)"/>
      <path id="DejaVuSans-58" d="M 403 4666 
L 1081 4666 
L 2241 2931 
L 3406 4666 
L 4084 4666 
L 2584 2425 
L 4184 0 
L 3506 0 
L 2194 1984 
L 872 0 
L 191 0 
L 1856 2491 
L 403 4666 
z
" transform="scale(0.015625)"/>
      <path id="DejaVuSans-2083" d="M 1638 1388 
Q 1925 1332 2083 1161 
Q 2241 991 2241 735 
Q 2241 347 1944 138 
Q 1647 -71 1094 -71 
Q 916 -71 720 -38 
Q 525 -6 306 57 
L 306 435 
Q 469 351 655 310 
Q 841 269 1050 269 
Q 1391 269 1578 392 
Q 1766 516 1766 735 
Q 1766 966 1592 1085 
Q 1419 1204 1081 1204 
L 813 1204 
L 813 1541 
L 1106 1541 
Q 1400 1541 1551 1639 
Q 1703 1738 1703 1926 
Q 1703 2107 1547 2202 
Q 1391 2297 1094 2297 
Q 969 2297 809 2269 
Q 650 2241 397 2169 
L 397 2529 
Q 625 2582 825 2610 
Q 1025 2638 1197 2638 
Q 1647 2638 1911 2453 
Q 2175 2269 2175 1960 
Q 2175 1744 2034 1594 
Q 1894 1444 1638 1388 
z
" transform="scale(0.015625)"/>
      <path id="DejaVuSans-45" d="M 628 4666 
L 3578 4666 
L 3578 4134 
L 1259 4134 
L 1259 2753 
L 3481 2753 
L 3481 2222 
L 1259 2222 
L 1259 531 
L 3634 531 
L 3634 0 
L 628 0 
L 628 4666 
z
" transform="scale(0.015625)"/>
      <path id="DejaVuSans-2081" d="M 488 319 
L 1125 319 
L 1125 2229 
L 428 2101 
L 428 2463 
L 1147 2585 
L 1575 2585 
L 1575 319 
L 2216 319 
L 2216 -24 
L 488 -24 
L 488 319 
z
" transform="scale(0.015625)"/>
      <path id="DejaVuSans-20" transform="scale(0.015625)"/>
      <path id="DejaVuSans-2014" d="M 313 1978 
L 6088 1978 
L 6088 1528 
L 313 1528 
L 313 1978 
z
" transform="scale(0.015625)"/>
      <path id="DejaVuSans-70" d="M 1159 525 
L 1159 -1331 
L 581 -1331 
L 581 3500 
L 1159 3500 
L 1159 2969 
Q 1341 3281 1617 3432 
Q 1894 3584 2278 3584 
Q 2916 3584 3314 3078 
Q 3713 2572 3713 1747 
Q 3713 922 3314 415 
Q 2916 -91 2278 -91 
Q 1894 -91 1617 61 
Q 1341 213 1159 525 
z
M 3116 1747 
Q 3116 2381 2855 2742 
Q 2594 3103 2138 3103 
Q 1681 3103 1420 2742 
Q 1159 2381 1159 1747 
Q 1159 1113 1420 752 
Q 1681 391 2138 391 
Q 2594 391 2855 752 
Q 3116 1113 3116 1747 
z
" transform="scale(0.015625)"/>
      <path id="DejaVuSans-79" d="M 2059 -325 
Q 1816 -950 1584 -1140 
Q 1353 -1331 966 -1331 
L 506 -1331 
L 506 -850 
L 844 -850 
Q 1081 -850 1212 -737 
Q 1344 -625 1503 -206 
L 1606 56 
L 191 3500 
L 800 3500 
L 1894 763 
L 2988 3500 
L 3597 3500 
L 2059 -325 
z
" transform="scale(0.015625)"/>
      <path id="DejaVuSans-72" d="M 2631 2963 
Q 2534 3019 2420 3045 
Q 2306 3072 2169 3072 
Q 1681 3072 1420 2755 
Q 1159 2438 1159 1844 
L 1159 0 
L 581 0 
L 581 3500 
L 1159 3500 
L 1159 2956 
Q 1341 3275 1631 3429 
Q 1922 3584 2338 3584 
Q 2397 3584 2469 3576 
Q 2541 3569 2628 3553 
L 2631 2963 
z
" transform="scale(0.015625)"/>
      <path id="DejaVuSans-61" d="M 2194 1759 
Q 1497 1759 1228 1600 
Q 959 1441 959 1056 
Q 959 750 1161 570 
Q 1363 391 1709 391 
Q 2188 391 2477 730 
Q 2766 1069 2766 1631 
L 2766 1759 
L 2194 1759 
z
M 3341 1997 
L 3341 0 
L 2766 0 
L 2766 531 
Q 2569 213 2275 61 
Q 1981 -91 1556 -91 
Q 1019 -91 701 211 
Q 384 513 384 1019 
Q 384 1609 779 1909 
Q 1175 2209 1959 2209 
L 2766 2209 
L 2766 2266 
Q 2766 2663 2505 2880 
Q 2244 3097 1772 3097 
Q 1472 3097 1187 3025 
Q 903 2953 641 2809 
L 641 3341 
Q 956 3463 1253 3523 
Q 1550 3584 1831 3584 
Q 2591 3584 2966 3190 
Q 3341 2797 3341 1997 
z
" transform="scale(0.015625)"/>
      <path id="DejaVuSans-6d" d="M 3328 2828 
Q 3544 3216 3844 3400 
Q 4144 3584 4550 3584 
Q 5097 3584 5394 3201 
Q 5691 2819 5691 2113 
L 5691 0 
L 5113 0 
L 5113 2094 
Q 5113 2597 4934 2840 
Q 4756 3084 4391 3084 
Q 3944 3084 3684 2787 
Q 3425 2491 3425 1978 
L 3425 0 
L 2847 0 
L 2847 2094 
Q 2847 2600 2669 2842 
Q 2491 3084 2119 3084 
Q 1678 3084 1418 2786 
Q 1159 2488 1159 1978 
L 1159 0 
L 581 0 
L 581 3500 
L 1159 3500 
L 1159 2956 
Q 1356 3278 1631 3431 
Q 1906 3584 2284 3584 
Q 2666 3584 2933 3390 
Q 3200 3197 3328 2828 
z
" transform="scale(0.015625)"/>
      <path id="DejaVuSans-69" d="M 603 3500 
L 1178 3500 
L 1178 0 
L 603 0 
L 603 3500 
z
M 603 4863 
L 1178 4863 
L 1178 4134 
L 603 4134 
L 603 4863 
z
" transform="scale(0.015625)"/>
      <path id="DejaVuSans-64" d="M 2906 2969 
L 2906 4863 
L 3481 4863 
L 3481 0 
L 2906 0 
L 2906 525 
Q 2725 213 2448 61 
Q 2172 -91 1784 -91 
Q 1150 -91 751 415 
Q 353 922 353 1747 
Q 353 2572 751 3078 
Q 1150 3584 1784 3584 
Q 2172 3584 2448 3432 
Q 2725 3281 2906 2969 
z
M 947 1747 
Q 947 1113 1208 752 
Q 1469 391 1925 391 
Q 2381 391 2643 752 
Q 2906 1113 2906 1747 
Q 2906 2381 2643 2742 
Q 2381 3103 1925 3103 
Q 1469 3103 1208 2742 
Q 947 2381 947 1747 
z
" transform="scale(0.015625)"/>
      <path id="DejaVuSans-6c" d="M 603 4863 
L 1178 4863 
L 1178 0 
L 603 0 
L 603 4863 
z
" transform="scale(0.015625)"/>
      <path id="DejaVuSans-65" d="M 3597 1894 
L 3597 1613 
L 953 1613 
Q 991 1019 1311 708 
Q 1631 397 2203 397 
Q 2534 397 2845 478 
Q 3156 559 3463 722 
L 3463 178 
Q 3153 47 2828 -22 
Q 2503 -91 2169 -91 
Q 1331 -91 842 396 
Q 353 884 353 1716 
Q 353 2575 817 3079 
Q 1281 3584 2069 3584 
Q 2775 3584 3186 3129 
Q 3597 2675 3597 1894 
z
M 3022 2063 
Q 3016 2534 2758 2815 
Q 2500 3097 2075 3097 
Q 1594 3097 1305 2825 
Q 1016 2553 972 2059 
L 3022 2063 
z
" transform="scale(0.015625)"/>
     </defs>
     <use xlink:href="#DejaVuSans-41"/>
     <use xlink:href="#DejaVuSans-58" transform="translate(68.408203 0)"/>
     <use xlink:href="#DejaVuSans-2083" transform="translate(136.914062 0)"/>
     <use xlink:href="#DejaVuSans-45" transform="translate(177.001953 0)"/>
     <use xlink:href="#DejaVuSans-2081" transform="translate(240.185547 0)"/>
     <use xlink:href="#DejaVuSans-20" transform="translate(280.273438 0)"/>
     <use xlink:href="#DejaVuSans-2014" transform="translate(312.060547 0)"/>
     <use xlink:href="#DejaVuSans-20" transform="translate(412.060547 0)"/>
     <use xlink:href="#DejaVuSans-70" transform="translate(443.847656 0)"/>
     <use xlink:href="#DejaVuSans-79" transform="translate(507.324219 0)"/>
     <use xlink:href="#DejaVuSans-72" transform="translate(566.503906 0)"/>
     <use xlink:href="#DejaVuSans-61" transform="translate(607.617188 0)"/>
     <use xlink:href="#DejaVuSans-6d" transform="translate(668.896484 0)"/>
     <use xlink:href="#DejaVuSans-69" transform="translate(766.308594 0)"/>
     <use xlink:href="#DejaVuSans-64" transform="translate(794.091797 0)"/>
     <use xlink:href="#DejaVuSans-61" transform="translate(857.568359 0)"/>
     <use xlink:href="#DejaVuSans-6c" transform="translate(918.847656 0)"/>
     <use xlink:href="#DejaVuSans-65" transform="translate(946.630859 0)"/>
    </g>
   </g>
   <g id="text_3">
    <!-- Schéma E -->
    <g transform="translate(324.566875 41.317957) scale(0.13 -0.13)">
     <defs>
      <path id="DejaVuSans-Bold-45" d="M 588 4666 
L 3834 4666 
L 3834 3756 
L 1791 3756 
L 1791 2888 
L 3713 2888 
L 3713 1978 
L 1791 1978 
L 1791 909 
L 3903 909 
L 3903 0 
L 588 0 
L 588 4666 
z
" transform="scale(0.015625)"/>
     </defs>
     <use xlink:href="#DejaVuSans-Bold-53"/>
     <use xlink:href="#DejaVuSans-Bold-63" transform="translate(72.021484 0)"/>
     <use xlink:href="#DejaVuSans-Bold-68" transform="translate(131.298828 0)"/>
     <use xlink:href="#DejaVuSans-Bold-e9" transform="translate(202.490234 0)"/>
     <use xlink:href="#DejaVuSans-Bold-6d" transform="translate(270.3125 0)"/>
     <use xlink:href="#DejaVuSans-Bold-61" transform="translate(374.511719 0)"/>
     <use xlink:href="#DejaVuSans-Bold-20" transform="translate(441.992188 0)"/>
     <use xlink:href="#DejaVuSans-Bold-45" transform="translate(476.806641 0)"/>
    </g>
   </g>
   <g id="text_4">
    <!-- AX₂E₂ — coudée -->
    <g transform="translate(317.478281 339.15119) scale(0.105 -0.105)">
     <defs>
      <path id="DejaVuSans-2082" d="M 838 332 
L 2163 332 
L 2163 -24 
L 294 -24 
L 294 319 
Q 400 416 597 591 
Q 1672 1544 1672 1838 
Q 1672 2044 1509 2170 
Q 1347 2297 1081 2297 
Q 919 2297 728 2242 
Q 538 2188 313 2079 
L 313 2463 
Q 553 2551 761 2594 
Q 969 2638 1147 2638 
Q 1600 2638 1872 2432 
Q 2144 2226 2144 1888 
Q 2144 1454 1109 566 
Q 934 416 838 332 
z
" transform="scale(0.015625)"/>
      <path id="DejaVuSans-63" d="M 3122 3366 
L 3122 2828 
Q 2878 2963 2633 3030 
Q 2388 3097 2138 3097 
Q 1578 3097 1268 2742 
Q 959 2388 959 1747 
Q 959 1106 1268 751 
Q 1578 397 2138 397 
Q 2388 397 2633 464 
Q 2878 531 3122 666 
L 3122 134 
Q 2881 22 2623 -34 
Q 2366 -91 2075 -91 
Q 1284 -91 818 406 
Q 353 903 353 1747 
Q 353 2603 823 3093 
Q 1294 3584 2113 3584 
Q 2378 3584 2631 3529 
Q 2884 3475 3122 3366 
z
" transform="scale(0.015625)"/>
      <path id="DejaVuSans-6f" d="M 1959 3097 
Q 1497 3097 1228 2736 
Q 959 2375 959 1747 
Q 959 1119 1226 758 
Q 1494 397 1959 397 
Q 2419 397 2687 759 
Q 2956 1122 2956 1747 
Q 2956 2369 2687 2733 
Q 2419 3097 1959 3097 
z
M 1959 3584 
Q 2709 3584 3137 3096 
Q 3566 2609 3566 1747 
Q 3566 888 3137 398 
Q 2709 -91 1959 -91 
Q 1206 -91 779 398 
Q 353 888 353 1747 
Q 353 2609 779 3096 
Q 1206 3584 1959 3584 
z
" transform="scale(0.015625)"/>
      <path id="DejaVuSans-75" d="M 544 1381 
L 544 3500 
L 1119 3500 
L 1119 1403 
Q 1119 906 1312 657 
Q 1506 409 1894 409 
Q 2359 409 2629 706 
Q 2900 1003 2900 1516 
L 2900 3500 
L 3475 3500 
L 3475 0 
L 2900 0 
L 2900 538 
Q 2691 219 2414 64 
Q 2138 -91 1772 -91 
Q 1169 -91 856 284 
Q 544 659 544 1381 
z
M 1991 3584 
L 1991 3584 
z
" transform="scale(0.015625)"/>
      <path id="DejaVuSans-e9" d="M 3597 1894 
L 3597 1613 
L 953 1613 
Q 991 1019 1311 708 
Q 1631 397 2203 397 
Q 2534 397 2845 478 
Q 3156 559 3463 722 
L 3463 178 
Q 3153 47 2828 -22 
Q 2503 -91 2169 -91 
Q 1331 -91 842 396 
Q 353 884 353 1716 
Q 353 2575 817 3079 
Q 1281 3584 2069 3584 
Q 2775 3584 3186 3129 
Q 3597 2675 3597 1894 
z
M 3022 2063 
Q 3016 2534 2758 2815 
Q 2500 3097 2075 3097 
Q 1594 3097 1305 2825 
Q 1016 2553 972 2059 
L 3022 2063 
z
M 2466 5119 
L 3088 5119 
L 2070 3944 
L 1591 3944 
L 2466 5119 
z
" transform="scale(0.015625)"/>
     </defs>
     <use xlink:href="#DejaVuSans-41"/>
     <use xlink:href="#DejaVuSans-58" transform="translate(68.408203 0)"/>
     <use xlink:href="#DejaVuSans-2082" transform="translate(136.914062 0)"/>
     <use xlink:href="#DejaVuSans-45" transform="translate(177.001953 0)"/>
     <use xlink:href="#DejaVuSans-2082" transform="translate(240.185547 0)"/>
     <use xlink:href="#DejaVuSans-20" transform="translate(280.273438 0)"/>
     <use xlink:href="#DejaVuSans-2014" transform="translate(312.060547 0)"/>
     <use xlink:href="#DejaVuSans-20" transform="translate(412.060547 0)"/>
     <use xlink:href="#DejaVuSans-63" transform="translate(443.847656 0)"/>
     <use xlink:href="#DejaVuSans-6f" transform="translate(498.828125 0)"/>
     <use xlink:href="#DejaVuSans-75" transform="translate(560.009766 0)"/>
     <use xlink:href="#DejaVuSans-64" transform="translate(623.388672 0)"/>
     <use xlink:href="#DejaVuSans-e9" transform="translate(686.865234 0)"/>
     <use xlink:href="#DejaVuSans-65" transform="translate(748.388672 0)"/>
    </g>
   </g>
   <g id="text_5">
    <!-- Schéma F -->
    <g transform="translate(582.38226 41.317957) scale(0.13 -0.13)">
     <defs>
      <path id="DejaVuSans-Bold-46" d="M 588 4666 
L 3834 4666 
L 3834 3756 
L 1791 3756 
L 1791 2888 
L 3713 2888 
L 3713 1978 
L 1791 1978 
L 1791 0 
L 588 0 
L 588 4666 
z
" transform="scale(0.015625)"/>
     </defs>
     <use xlink:href="#DejaVuSans-Bold-53"/>
     <use xlink:href="#DejaVuSans-Bold-63" transform="translate(72.021484 0)"/>
     <use xlink:href="#DejaVuSans-Bold-68" transform="translate(131.298828 0)"/>
     <use xlink:href="#DejaVuSans-Bold-e9" transform="translate(202.490234 0)"/>
     <use xlink:href="#DejaVuSans-Bold-6d" transform="translate(270.3125 0)"/>
     <use xlink:href="#DejaVuSans-Bold-61" transform="translate(374.511719 0)"/>
     <use xlink:href="#DejaVuSans-Bold-20" transform="translate(441.992188 0)"/>
     <use xlink:href="#DejaVuSans-Bold-46" transform="translate(476.806641 0)"/>
    </g>
   </g>
   <g id="text_6">
    <!-- AX₅ — bipyramide trigonale -->
    <g transform="translate(545.070892 339.15119) scale(0.105 -0.105)">
     <defs>
      <path id="DejaVuSans-2085" d="M 444 2585 
L 2038 2585 
L 2038 2288 
L 816 2288 
L 816 1651 
Q 903 1679 994 1691 
Q 1081 1704 1169 1704 
Q 1672 1704 1966 1463 
Q 2259 1226 2259 816 
Q 2259 394 1956 160 
Q 1656 -71 1106 -71 
Q 919 -71 722 -43 
Q 525 -15 319 41 
L 319 394 
Q 497 310 691 266 
Q 884 226 1100 226 
Q 1447 226 1650 385 
Q 1853 544 1853 816 
Q 1853 1088 1650 1247 
Q 1447 1407 1100 1407 
Q 938 1407 775 1375 
Q 613 1344 444 1279 
L 444 2585 
z
" transform="scale(0.015625)"/>
      <path id="DejaVuSans-62" d="M 3116 1747 
Q 3116 2381 2855 2742 
Q 2594 3103 2138 3103 
Q 1681 3103 1420 2742 
Q 1159 2381 1159 1747 
Q 1159 1113 1420 752 
Q 1681 391 2138 391 
Q 2594 391 2855 752 
Q 3116 1113 3116 1747 
z
M 1159 2969 
Q 1341 3281 1617 3432 
Q 1894 3584 2278 3584 
Q 2916 3584 3314 3078 
Q 3713 2572 3713 1747 
Q 3713 922 3314 415 
Q 2916 -91 2278 -91 
Q 1894 -91 1617 61 
Q 1341 213 1159 525 
L 1159 0 
L 581 0 
L 581 4863 
L 1159 4863 
L 1159 2969 
z
" transform="scale(0.015625)"/>
      <path id="DejaVuSans-74" d="M 1172 4494 
L 1172 3500 
L 2356 3500 
L 2356 3053 
L 1172 3053 
L 1172 1153 
Q 1172 725 1289 603 
Q 1406 481 1766 481 
L 2356 481 
L 2356 0 
L 1766 0 
Q 1100 0 847 248 
Q 594 497 594 1153 
L 594 3053 
L 172 3053 
L 172 3500 
L 594 3500 
L 594 4494 
L 1172 4494 
z
" transform="scale(0.015625)"/>
      <path id="DejaVuSans-67" d="M 2906 1791 
Q 2906 2416 2648 2759 
Q 2391 3103 1925 3103 
Q 1463 3103 1205 2759 
Q 947 2416 947 1791 
Q 947 1169 1205 825 
Q 1463 481 1925 481 
Q 2391 481 2648 825 
Q 2906 1169 2906 1791 
z
M 3481 434 
Q 3481 -459 3084 -895 
Q 2688 -1331 1869 -1331 
Q 1566 -1331 1297 -1286 
Q 1028 -1241 775 -1147 
L 775 -588 
Q 1028 -725 1275 -790 
Q 1522 -856 1778 -856 
Q 2344 -856 2625 -561 
Q 2906 -266 2906 331 
L 2906 616 
Q 2728 306 2450 153 
Q 2172 0 1784 0 
Q 1141 0 747 490 
Q 353 981 353 1791 
Q 353 2603 747 3093 
Q 1141 3584 1784 3584 
Q 2172 3584 2450 3431 
Q 2728 3278 2906 2969 
L 2906 3500 
L 3481 3500 
L 3481 434 
z
" transform="scale(0.015625)"/>
      <path id="DejaVuSans-6e" d="M 3513 2113 
L 3513 0 
L 2938 0 
L 2938 2094 
Q 2938 2591 2744 2837 
Q 2550 3084 2163 3084 
Q 1697 3084 1428 2787 
Q 1159 2491 1159 1978 
L 1159 0 
L 581 0 
L 581 3500 
L 1159 3500 
L 1159 2956 
Q 1366 3272 1645 3428 
Q 1925 3584 2291 3584 
Q 2894 3584 3203 3211 
Q 3513 2838 3513 2113 
z
" transform="scale(0.015625)"/>
     </defs>
     <use xlink:href="#DejaVuSans-41"/>
     <use xlink:href="#DejaVuSans-58" transform="translate(68.408203 0)"/>
     <use xlink:href="#DejaVuSans-2085" transform="translate(136.914062 0)"/>
     <use xlink:href="#DejaVuSans-20" transform="translate(177.001953 0)"/>
     <use xlink:href="#DejaVuSans-2014" transform="translate(208.789062 0)"/>
     <use xlink:href="#DejaVuSans-20" transform="translate(308.789062 0)"/>
     <use xlink:href="#DejaVuSans-62" transform="translate(340.576172 0)"/>
     <use xlink:href="#DejaVuSans-69" transform="translate(404.052734 0)"/>
     <use xlink:href="#DejaVuSans-70" transform="translate(431.835938 0)"/>
     <use xlink:href="#DejaVuSans-79" transform="translate(495.3125 0)"/>
     <use xlink:href="#DejaVuSans-72" transform="translate(554.492188 0)"/>
     <use xlink:href="#DejaVuSans-61" transform="translate(595.605469 0)"/>
     <use xlink:href="#DejaVuSans-6d" transform="translate(656.884766 0)"/>
     <use xlink:href="#DejaVuSans-69" transform="translate(754.296875 0)"/>
     <use xlink:href="#DejaVuSans-64" transform="translate(782.080078 0)"/>
     <use xlink:href="#DejaVuSans-65" transform="translate(845.556641 0)"/>
     <use xlink:href="#DejaVuSans-20" transform="translate(907.080078 0)"/>
     <use xlink:href="#DejaVuSans-74" transform="translate(938.867188 0)"/>
     <use xlink:href="#DejaVuSans-72" transform="translate(978.076172 0)"/>
     <use xlink:href="#DejaVuSans-69" transform="translate(1019.189453 0)"/>
     <use xlink:href="#DejaVuSans-67" transform="translate(1046.972656 0)"/>
     <use xlink:href="#DejaVuSans-6f" transform="translate(1110.449219 0)"/>
     <use xlink:href="#DejaVuSans-6e" transform="translate(1171.630859 0)"/>
     <use xlink:href="#DejaVuSans-61" transform="translate(1235.009766 0)"/>
     <use xlink:href="#DejaVuSans-6c" transform="translate(1296.289062 0)"/>
     <use xlink:href="#DejaVuSans-65" transform="translate(1324.072266 0)"/>
    </g>
   </g>
   <g id="text_7">
    <!-- Schéma G -->
    <g transform="translate(805.379802 41.317957) scale(0.13 -0.13)">
     <defs>
      <path id="DejaVuSans-Bold-47" d="M 4781 347 
Q 4331 128 3847 18 
Q 3363 -91 2847 -91 
Q 1681 -91 1000 561 
Q 319 1213 319 2328 
Q 319 3456 1012 4103 
Q 1706 4750 2913 4750 
Q 3378 4750 3804 4662 
Q 4231 4575 4609 4403 
L 4609 3438 
Q 4219 3659 3833 3768 
Q 3447 3878 3059 3878 
Q 2341 3878 1952 3476 
Q 1563 3075 1563 2328 
Q 1563 1588 1938 1184 
Q 2313 781 3003 781 
Q 3191 781 3352 804 
Q 3513 828 3641 878 
L 3641 1784 
L 2906 1784 
L 2906 2591 
L 4781 2591 
L 4781 347 
z
" transform="scale(0.015625)"/>
     </defs>
     <use xlink:href="#DejaVuSans-Bold-53"/>
     <use xlink:href="#DejaVuSans-Bold-63" transform="translate(72.021484 0)"/>
     <use xlink:href="#DejaVuSans-Bold-68" transform="translate(131.298828 0)"/>
     <use xlink:href="#DejaVuSans-Bold-e9" transform="translate(202.490234 0)"/>
     <use xlink:href="#DejaVuSans-Bold-6d" transform="translate(270.3125 0)"/>
     <use xlink:href="#DejaVuSans-Bold-61" transform="translate(374.511719 0)"/>
     <use xlink:href="#DejaVuSans-Bold-20" transform="translate(441.992188 0)"/>
     <use xlink:href="#DejaVuSans-Bold-47" transform="translate(476.806641 0)"/>
    </g>
   </g>
   <g id="text_8">
    <!-- AX₆ — octaédrique -->
    <g transform="translate(792.383122 339.36119) scale(0.105 -0.105)">
     <defs>
      <path id="DejaVuSans-2086" d="M 1359 1429 
Q 1084 1429 925 1266 
Q 766 1101 766 816 
Q 766 535 925 372 
Q 1084 207 1359 207 
Q 1631 207 1791 372 
Q 1950 535 1950 816 
Q 1950 1101 1791 1266 
Q 1631 1429 1359 1429 
z
M 2166 2535 
L 2166 2213 
Q 2013 2276 1856 2307 
Q 1700 2341 1547 2341 
Q 1147 2341 934 2107 
Q 722 1869 691 1391 
Q 809 1544 988 1626 
Q 1169 1707 1381 1707 
Q 1834 1707 2097 1469 
Q 2359 1229 2359 816 
Q 2359 419 2084 172 
Q 1813 -71 1359 -71 
Q 838 -71 563 275 
Q 288 622 288 1285 
Q 288 1904 625 2269 
Q 963 2638 1531 2638 
Q 1684 2638 1841 2613 
Q 1997 2585 2166 2535 
z
" transform="scale(0.015625)"/>
      <path id="DejaVuSans-71" d="M 947 1747 
Q 947 1113 1208 752 
Q 1469 391 1925 391 
Q 2381 391 2643 752 
Q 2906 1113 2906 1747 
Q 2906 2381 2643 2742 
Q 2381 3103 1925 3103 
Q 1469 3103 1208 2742 
Q 947 2381 947 1747 
z
M 2906 525 
Q 2725 213 2448 61 
Q 2172 -91 1784 -91 
Q 1150 -91 751 415 
Q 353 922 353 1747 
Q 353 2572 751 3078 
Q 1150 3584 1784 3584 
Q 2172 3584 2448 3432 
Q 2725 3281 2906 2969 
L 2906 3500 
L 3481 3500 
L 3481 -1331 
L 2906 -1331 
L 2906 525 
z
" transform="scale(0.015625)"/>
     </defs>
     <use xlink:href="#DejaVuSans-41"/>
     <use xlink:href="#DejaVuSans-58" transform="translate(68.408203 0)"/>
     <use xlink:href="#DejaVuSans-2086" transform="translate(136.914062 0)"/>
     <use xlink:href="#DejaVuSans-20" transform="translate(177.001953 0)"/>
     <use xlink:href="#DejaVuSans-2014" transform="translate(208.789062 0)"/>
     <use xlink:href="#DejaVuSans-20" transform="translate(308.789062 0)"/>
     <use xlink:href="#DejaVuSans-6f" transform="translate(340.576172 0)"/>
     <use xlink:href="#DejaVuSans-63" transform="translate(401.757812 0)"/>
     <use xlink:href="#DejaVuSans-74" transform="translate(456.738281 0)"/>
     <use xlink:href="#DejaVuSans-61" transform="translate(495.947266 0)"/>
     <use xlink:href="#DejaVuSans-e9" transform="translate(557.226562 0)"/>
     <use xlink:href="#DejaVuSans-64" transform="translate(618.75 0)"/>
     <use xlink:href="#DejaVuSans-72" transform="translate(682.226562 0)"/>
     <use xlink:href="#DejaVuSans-69" transform="translate(723.339844 0)"/>
     <use xlink:href="#DejaVuSans-71" transform="translate(751.123047 0)"/>
     <use xlink:href="#DejaVuSans-75" transform="translate(814.599609 0)"/>
     <use xlink:href="#DejaVuSans-65" transform="translate(877.978516 0)"/>
    </g>
   </g>
   <g id="text_9">
    <!-- X -->
    <g transform="translate(55.195415 220.70774) scale(0.14 -0.14)">
     <use xlink:href="#DejaVuSans-58"/>
    </g>
   </g>
   <g id="text_10">
    <!-- X -->
    <g transform="translate(193.860738 220.70774) scale(0.14 -0.14)">
     <use xlink:href="#DejaVuSans-58"/>
    </g>
   </g>
   <g id="text_11">
    <!-- X -->
    <g transform="translate(124.528077 102.655433) scale(0.14 -0.14)">
     <use xlink:href="#DejaVuSans-58"/>
    </g>
   </g>
   <g id="text_12">
    <!-- A -->
    <g transform="translate(123.905733 180.67851) scale(0.14 -0.14)">
     <defs>
      <path id="DejaVuSans-Bold-41" d="M 3419 850 
L 1538 850 
L 1241 0 
L 31 0 
L 1759 4666 
L 3194 4666 
L 4922 0 
L 3713 0 
L 3419 850 
z
M 1838 1716 
L 3116 1716 
L 2478 3572 
L 1838 1716 
z
" transform="scale(0.015625)"/>
     </defs>
     <use xlink:href="#DejaVuSans-Bold-41"/>
    </g>
   </g>
   <g id="text_13">
    <!-- • -->
    <g transform="translate(117.937398 67.904543) scale(0.11 -0.11)">
     <defs>
      <path id="DejaVuSans-2022" d="M 959 2381 
Q 959 2769 1229 3036 
Q 1500 3303 1894 3303 
Q 2281 3303 2548 3036 
Q 2816 2769 2816 2381 
Q 2816 1991 2547 1722 
Q 2278 1453 1888 1453 
Q 1497 1453 1228 1722 
Q 959 1991 959 2381 
z
" transform="scale(0.015625)"/>
     </defs>
     <use xlink:href="#DejaVuSans-2022"/>
    </g>
   </g>
   <g id="text_14">
    <!-- • -->
    <g transform="translate(134.220475 67.904543) scale(0.11 -0.11)">
     <use xlink:href="#DejaVuSans-2022"/>
    </g>
   </g>
   <g id="text_15">
    <!-- X -->
    <g transform="translate(298.595119 237.288391) scale(0.14 -0.14)">
     <use xlink:href="#DejaVuSans-58"/>
    </g>
   </g>
   <g id="text_16">
    <!-- X -->
    <g transform="translate(411.814881 237.288391) scale(0.14 -0.14)">
     <use xlink:href="#DejaVuSans-58"/>
    </g>
   </g>
   <g id="text_17">
    <!-- A -->
    <g transform="translate(354.582656 180.67851) scale(0.14 -0.14)">
     <use xlink:href="#DejaVuSans-Bold-41"/>
    </g>
   </g>
   <g id="text_18">
    <!-- • -->
    <g transform="translate(318.083552 120.146082) scale(0.11 -0.11)">
     <use xlink:href="#DejaVuSans-2022"/>
    </g>
   </g>
   <g id="text_19">
    <!-- • -->
    <g transform="translate(334.366629 120.146082) scale(0.11 -0.11)">
     <use xlink:href="#DejaVuSans-2022"/>
    </g>
   </g>
   <g id="text_20">
    <!-- • -->
    <g transform="translate(379.14509 120.146082) scale(0.11 -0.11)">
     <use xlink:href="#DejaVuSans-2022"/>
    </g>
   </g>
   <g id="text_21">
    <!-- • -->
    <g transform="translate(395.428167 120.146082) scale(0.11 -0.11)">
     <use xlink:href="#DejaVuSans-2022"/>
    </g>
   </g>
   <g id="text_22">
    <!-- X -->
    <g transform="translate(613.020385 104.690817) scale(0.14 -0.14)">
     <use xlink:href="#DejaVuSans-58"/>
    </g>
   </g>
   <g id="text_23">
    <!-- X -->
    <g transform="translate(547.213113 218.672356) scale(0.14 -0.14)">
     <use xlink:href="#DejaVuSans-58"/>
    </g>
   </g>
   <g id="text_24">
    <!-- X -->
    <g transform="translate(678.827657 218.672356) scale(0.14 -0.14)">
     <use xlink:href="#DejaVuSans-58"/>
    </g>
   </g>
   <g id="text_25">
    <!-- X -->
    <g transform="translate(561.457308 89.764663) scale(0.14 -0.14)">
     <use xlink:href="#DejaVuSans-58"/>
    </g>
   </g>
   <g id="text_26">
    <!-- X -->
    <g transform="translate(664.583462 271.592356) scale(0.14 -0.14)">
     <use xlink:href="#DejaVuSans-58"/>
    </g>
   </g>
   <g id="text_27">
    <!-- A -->
    <g transform="translate(612.398041 180.67851) scale(0.14 -0.14)">
     <use xlink:href="#DejaVuSans-Bold-41"/>
    </g>
   </g>
   <g id="text_28">
    <!-- 120° -->
    <g transform="translate(670.735385 144.249231) scale(0.09 -0.09)">
     <defs>
      <path id="DejaVuSans-31" d="M 794 531 
L 1825 531 
L 1825 4091 
L 703 3866 
L 703 4441 
L 1819 4666 
L 2450 4666 
L 2450 531 
L 3481 531 
L 3481 0 
L 794 0 
L 794 531 
z
" transform="scale(0.015625)"/>
      <path id="DejaVuSans-32" d="M 1228 531 
L 3431 531 
L 3431 0 
L 469 0 
L 469 531 
Q 828 903 1448 1529 
Q 2069 2156 2228 2338 
Q 2531 2678 2651 2914 
Q 2772 3150 2772 3378 
Q 2772 3750 2511 3984 
Q 2250 4219 1831 4219 
Q 1534 4219 1204 4116 
Q 875 4013 500 3803 
L 500 4441 
Q 881 4594 1212 4672 
Q 1544 4750 1819 4750 
Q 2544 4750 2975 4387 
Q 3406 4025 3406 3419 
Q 3406 3131 3298 2873 
Q 3191 2616 2906 2266 
Q 2828 2175 2409 1742 
Q 1991 1309 1228 531 
z
" transform="scale(0.015625)"/>
      <path id="DejaVuSans-30" d="M 2034 4250 
Q 1547 4250 1301 3770 
Q 1056 3291 1056 2328 
Q 1056 1369 1301 889 
Q 1547 409 2034 409 
Q 2525 409 2770 889 
Q 3016 1369 3016 2328 
Q 3016 3291 2770 3770 
Q 2525 4250 2034 4250 
z
M 2034 4750 
Q 2819 4750 3233 4129 
Q 3647 3509 3647 2328 
Q 3647 1150 3233 529 
Q 2819 -91 2034 -91 
Q 1250 -91 836 529 
Q 422 1150 422 2328 
Q 422 3509 836 4129 
Q 1250 4750 2034 4750 
z
" transform="scale(0.015625)"/>
      <path id="DejaVuSans-b0" d="M 1600 4347 
Q 1350 4347 1178 4173 
Q 1006 4000 1006 3750 
Q 1006 3503 1178 3333 
Q 1350 3163 1600 3163 
Q 1850 3163 2022 3333 
Q 2194 3503 2194 3750 
Q 2194 3997 2020 4172 
Q 1847 4347 1600 4347 
z
M 1600 4750 
Q 1800 4750 1984 4673 
Q 2169 4597 2303 4453 
Q 2447 4313 2519 4134 
Q 2591 3956 2591 3750 
Q 2591 3338 2302 3052 
Q 2013 2766 1594 2766 
Q 1172 2766 890 3047 
Q 609 3328 609 3750 
Q 609 4169 896 4459 
Q 1184 4750 1600 4750 
z
" transform="scale(0.015625)"/>
     </defs>
     <use xlink:href="#DejaVuSans-31"/>
     <use xlink:href="#DejaVuSans-32" transform="translate(63.623047 0)"/>
     <use xlink:href="#DejaVuSans-30" transform="translate(127.246094 0)"/>
     <use xlink:href="#DejaVuSans-b0" transform="translate(190.869141 0)"/>
    </g>
   </g>
   <g id="text_29">
    <!-- 90° -->
    <g transform="translate(585.249231 241.269231) scale(0.09 -0.09)">
     <defs>
      <path id="DejaVuSans-39" d="M 703 97 
L 703 672 
Q 941 559 1184 500 
Q 1428 441 1663 441 
Q 2288 441 2617 861 
Q 2947 1281 2994 2138 
Q 2813 1869 2534 1725 
Q 2256 1581 1919 1581 
Q 1219 1581 811 2004 
Q 403 2428 403 3163 
Q 403 3881 828 4315 
Q 1253 4750 1959 4750 
Q 2769 4750 3195 4129 
Q 3622 3509 3622 2328 
Q 3622 1225 3098 567 
Q 2575 -91 1691 -91 
Q 1453 -91 1209 -44 
Q 966 3 703 97 
z
M 1959 2075 
Q 2384 2075 2632 2365 
Q 2881 2656 2881 3163 
Q 2881 3666 2632 3958 
Q 2384 4250 1959 4250 
Q 1534 4250 1286 3958 
Q 1038 3666 1038 3163 
Q 1038 2656 1286 2365 
Q 1534 2075 1959 2075 
z
" transform="scale(0.015625)"/>
     </defs>
     <use xlink:href="#DejaVuSans-39"/>
     <use xlink:href="#DejaVuSans-30" transform="translate(63.623047 0)"/>
     <use xlink:href="#DejaVuSans-b0" transform="translate(127.246094 0)"/>
    </g>
   </g>
   <g id="text_30">
    <!-- X -->
    <g transform="translate(910.186538 180.67851) scale(0.14 -0.14)">
     <use xlink:href="#DejaVuSans-58"/>
    </g>
   </g>
   <g id="text_31">
    <!-- X -->
    <g transform="translate(836.912692 107.404663) scale(0.14 -0.14)">
     <use xlink:href="#DejaVuSans-58"/>
    </g>
   </g>
   <g id="text_32">
    <!-- X -->
    <g transform="translate(763.638846 180.67851) scale(0.14 -0.14)">
     <use xlink:href="#DejaVuSans-58"/>
    </g>
   </g>
   <g id="text_33">
    <!-- X -->
    <g transform="translate(836.912692 253.952356) scale(0.14 -0.14)">
     <use xlink:href="#DejaVuSans-58"/>
    </g>
   </g>
   <g id="text_34">
    <!-- X -->
    <g transform="translate(786.028077 104.012356) scale(0.14 -0.14)">
     <use xlink:href="#DejaVuSans-58"/>
    </g>
   </g>
   <g id="text_35">
    <!-- X -->
    <g transform="translate(887.797308 257.344663) scale(0.14 -0.14)">
     <use xlink:href="#DejaVuSans-58"/>
    </g>
   </g>
   <g id="text_36">
    <!-- A -->
    <g transform="translate(836.290349 180.67851) scale(0.14 -0.14)">
     <use xlink:href="#DejaVuSans-Bold-41"/>
    </g>
   </g>
   <g id="text_37">
    <!-- 90° -->
    <g transform="translate(879.023077 137.464615) scale(0.09 -0.09)">
     <use xlink:href="#DejaVuSans-39"/>
     <use xlink:href="#DejaVuSans-30" transform="translate(63.623047 0)"/>
     <use xlink:href="#DejaVuSans-b0" transform="translate(127.246094 0)"/>
    </g>
   </g>
  </g>
 </g>
 <defs>
  <clipPath id="pb45b4364d9">
   <rect x="7.2" y="7.2" width="949.846154" height="352.8"/>
  </clipPath>
 </defs>
</svg>
