<svg xmlns="http://www.w3.org/2000/svg" width="1200" height="700" viewBox="0 0 1200 700">
<rect width="100%" height="100%" fill="white"/>
<style>
text { font-family: Arial, Helvetica, sans-serif; fill: #111; }
.label { font-size: 34px; font-weight: 700; }
.small { font-size: 22px; }
.line { stroke:#111; stroke-width:5; fill:none; stroke-linecap:round; stroke-linejoin:round; }
.thin { stroke:#111; stroke-width:3; fill:none; }
.cell { fill:#f7f7f7; stroke:#111; stroke-width:4; }
.nucleus { fill:#ddd; stroke:#111; stroke-width:3; }
</style>

<text x="60" y="60" class="label">Nerf périphérique en coupe</text>
<ellipse cx="560" cy="380" rx="420" ry="270" class="line"/>
<ellipse cx="430" cy="340" rx="150" ry="110" class="line"/><ellipse cx="720" cy="390" rx="150" ry="110" class="line"/>
<circle cx="350" cy="290" r="14" fill="#ddd" stroke="#111" stroke-width="2"/><circle cx="405" cy="290" r="14" fill="#ddd" stroke="#111" stroke-width="2"/><circle cx="460" cy="290" r="14" fill="#ddd" stroke="#111" stroke-width="2"/><circle cx="515" cy="290" r="14" fill="#ddd" stroke="#111" stroke-width="2"/><circle cx="350" cy="345" r="14" fill="#ddd" stroke="#111" stroke-width="2"/><circle cx="405" cy="345" r="14" fill="#ddd" stroke="#111" stroke-width="2"/><circle cx="460" cy="345" r="14" fill="#ddd" stroke="#111" stroke-width="2"/><circle cx="515" cy="345" r="14" fill="#ddd" stroke="#111" stroke-width="2"/><circle cx="350" cy="400" r="14" fill="#ddd" stroke="#111" stroke-width="2"/><circle cx="405" cy="400" r="14" fill="#ddd" stroke="#111" stroke-width="2"/><circle cx="460" cy="400" r="14" fill="#ddd" stroke="#111" stroke-width="2"/><circle cx="515" cy="400" r="14" fill="#ddd" stroke="#111" stroke-width="2"/><circle cx="640" cy="340" r="14" fill="#ddd" stroke="#111" stroke-width="2"/><circle cx="695" cy="340" r="14" fill="#ddd" stroke="#111" stroke-width="2"/><circle cx="750" cy="340" r="14" fill="#ddd" stroke="#111" stroke-width="2"/><circle cx="805" cy="340" r="14" fill="#ddd" stroke="#111" stroke-width="2"/><circle cx="640" cy="395" r="14" fill="#ddd" stroke="#111" stroke-width="2"/><circle cx="695" cy="395" r="14" fill="#ddd" stroke="#111" stroke-width="2"/><circle cx="750" cy="395" r="14" fill="#ddd" stroke="#111" stroke-width="2"/><circle cx="805" cy="395" r="14" fill="#ddd" stroke="#111" stroke-width="2"/><circle cx="640" cy="450" r="14" fill="#ddd" stroke="#111" stroke-width="2"/><circle cx="695" cy="450" r="14" fill="#ddd" stroke="#111" stroke-width="2"/><circle cx="750" cy="450" r="14" fill="#ddd" stroke="#111" stroke-width="2"/><circle cx="805" cy="450" r="14" fill="#ddd" stroke="#111" stroke-width="2"/>
<line x1="930" y1="200" x2="1080" y2="120" class="line"/><text x="1100" y="130" class="label">1</text>
<line x1="840" y1="330" x2="1080" y2="330" class="line"/><text x="1100" y="340" class="label">2</text>
<line x1="770" y1="430" x2="1080" y2="545" class="line"/><text x="1100" y="560" class="label">3</text>

</svg>